<svg width="14" height="12" viewBox="0 0 14 12" fill="none" xmlns="http://www.w3.org/2000/svg">
<path d="M12.7836 0.148079C13.0322 -0.0692119 13.4111 -0.0423296 13.6299 0.208122C13.8486 0.458574 13.8244 0.837755 13.5758 1.05505L13.1797 0.601562L12.7836 0.148079ZM7.80195 6.10117C7.55332 6.31846 7.17443 6.29157 6.95567 6.04112C6.73691 5.79067 6.76112 5.41149 7.00975 5.1942L7.40585 5.64768L7.80195 6.10117ZM13.1797 0.601562L13.5758 1.05505L7.80195 6.10117L7.40585 5.64768L7.00975 5.1942L12.7836 0.148079L13.1797 0.601562Z" fill="#666666"/>
<path d="M12.768 11.6566C13.0166 11.8739 13.3955 11.847 13.6142 11.5966C13.833 11.3461 13.8088 10.9669 13.5602 10.7496L13.1641 11.2031L12.768 11.6566ZM7.78633 5.70352C7.5377 5.48623 7.15881 5.51311 6.94005 5.76357C6.72129 6.01402 6.7455 6.3932 6.99412 6.61049L7.39023 6.15701L7.78633 5.70352ZM13.1641 11.2031L13.5602 10.7496L7.78633 5.70352L7.39023 6.15701L6.99412 6.61049L12.768 11.6566L13.1641 11.2031Z" fill="#666666"/>
<path d="M5.99452 0.148079C6.24315 -0.0692119 6.62204 -0.0423296 6.8408 0.208122C7.05956 0.458574 7.03535 0.837755 6.78673 1.05505L6.39062 0.601562L5.99452 0.148079ZM1.01289 6.10117C0.764262 6.31846 0.385369 6.29157 0.166609 6.04112C-0.0521519 5.79067 -0.0279405 5.41149 0.220687 5.1942L0.616788 5.64768L1.01289 6.10117ZM6.39062 0.601562L6.78673 1.05505L1.01289 6.10117L0.616788 5.64768L0.220687 5.1942L5.99452 0.148079L6.39062 0.601562Z" fill="#666666"/>
<path d="M5.9789 11.6566C6.22753 11.8739 6.60642 11.847 6.82518 11.5966C7.04394 11.3461 7.01973 10.9669 6.7711 10.7496L6.375 11.2031L5.9789 11.6566ZM0.997264 5.70352C0.748637 5.48623 0.369744 5.51311 0.150984 5.76357C-0.0677769 6.01402 -0.0435655 6.3932 0.205062 6.61049L0.601163 6.15701L0.997264 5.70352ZM6.375 11.2031L6.7711 10.7496L0.997264 5.70352L0.601163 6.15701L0.205062 6.61049L5.9789 11.6566L6.375 11.2031Z" fill="#666666"/>
</svg>
