<svg width="82" height="100" viewBox="0 0 82 100" fill="none" xmlns="http://www.w3.org/2000/svg">
<path d="M36.9765 44.5625C16.5704 44.5625 0 60.8768 0 81.0431V90.5597C0 95.7712 4.29603 100.001 9.58935 100.001H64.4404C69.7337 100.001 74.0298 95.7712 74.0298 90.5597V81.0431C74.0298 60.8768 57.4594 44.5625 36.9765 44.5625Z" fill="#628AF0"/>
<path d="M42.0368 76.5113C42.0368 78.0219 40.7327 79.2304 39.1984 79.2304H34.9791C33.3681 79.2304 32.1406 78.0219 32.1406 76.5113V64.9554C32.1406 63.4448 33.4448 62.2363 34.9791 62.2363H39.1984C40.8094 62.2363 42.0368 63.4448 42.0368 64.9554V76.5113Z" fill="#C2D3FF"/>
<path d="M42.0368 55.8171C42.0368 57.3277 40.7327 58.5362 39.1984 58.5362H34.9791C33.3681 58.5362 32.1406 57.3277 32.1406 55.8171V51.9651C32.1406 50.4546 33.4448 49.2461 34.9791 49.2461H39.1984C40.8094 49.2461 42.0368 50.4546 42.0368 51.9651V55.8171Z" fill="#C2D3FF"/>
<path d="M63.132 25.7554C63.132 39.9549 51.3946 51.5109 36.9722 51.5109C22.5499 51.5109 10.8125 39.9549 10.8125 25.7554C10.8892 11.556 22.5499 0 37.049 0C51.4713 0 63.132 11.556 63.132 25.7554Z" fill="#94B2FF"/>
<path d="M80.0114 74.6978C78.1216 73.6443 75.7279 74.3259 74.657 76.1851L67.413 89.0752L64.2004 84.3653C63.0035 82.5682 60.5468 82.0724 58.783 83.2499C56.9563 84.4273 56.4523 86.8442 57.6492 88.5794L64.2004 98.185C65.0193 99.3625 66.3421 99.9822 67.7279 99.9202C69.1767 99.9822 70.6256 99.3005 71.3815 97.9991L81.5232 79.9654C82.5311 78.1062 81.9011 75.7513 80.0114 74.6978Z" fill="#E2EAFF"/>
</svg>
