<svg width="82" height="86" viewBox="0 0 82 86" fill="none" xmlns="http://www.w3.org/2000/svg">
<path d="M20.6142 41.2266C9.23823 41.2266 0 50.551 0 62.0332V67.4275C0 70.4329 2.36682 72.8218 5.34443 72.8218H35.884C38.8616 72.8218 41.2285 70.4329 41.2285 67.4275V62.0332C41.2285 50.551 31.9902 41.2266 20.6142 41.2266Z" fill="#587EE2"/>
<path d="M23.2855 58.9507C23.2855 60.4149 22.1402 61.5708 20.6896 61.5708C19.239 61.5708 18.0938 60.4149 18.0938 58.9507V43.8467C18.0938 42.3825 19.239 41.2266 20.6896 41.2266C22.1402 41.2266 23.2855 42.3825 23.2855 43.8467V58.9507Z" fill="#4E6DBE"/>
<path d="M35.1966 30.4386C35.1966 38.53 28.7069 45.1573 20.6139 45.1573C12.5973 45.1573 6.03125 38.6071 6.03125 30.4386C6.03125 22.3471 12.5973 15.7969 20.6139 15.7969C28.7069 15.7969 35.1966 22.3471 35.1966 30.4386Z" fill="#587EE2"/>
<path d="M50.8475 38.375C33.669 38.375 19.7734 52.4002 19.7734 69.7391V77.9076C19.7734 82.3771 23.3618 85.999 27.8664 85.999H73.9049C78.3331 85.999 81.9979 82.3771 81.9979 77.9076V69.7391C81.9215 52.4002 68.026 38.375 50.8475 38.375Z" fill="#4C79EF"/>
<path d="M72.8364 22.1937C72.8364 34.4465 62.9874 44.3875 50.8479 44.3875C38.7084 44.3875 28.8594 34.4465 28.8594 22.1937C28.8594 9.94094 38.7084 0 50.8479 0C62.9874 0 72.8364 9.94094 72.8364 22.1937Z" fill="#7A9DF9"/>
</svg>
