<svg width="55" height="32" viewBox="0 0 55 32" fill="none" xmlns="http://www.w3.org/2000/svg">
<path d="M12.3587 31.92C4.91875 31.92 0.23875 27.6 0.23875 21.12C0.23875 17.28 -0.00124958 10.68 6.83875 4.19996C10.0788 1.19995 15.4788 -4.3869e-05 18.3588 2.51996C20.2788 4.19996 20.0388 6.95996 18.5988 8.15996C17.0388 9.47996 15.7188 11.64 15.4788 14.52C19.5588 14.4 24.1188 17.88 24.1188 22.68C24.1188 27.48 20.9988 31.92 12.3587 31.92ZM30.2388 21.12C30.2388 17.28 29.9987 10.68 36.8388 4.19996C40.0788 1.19995 45.4788 -4.3869e-05 48.3588 2.51996C50.2788 4.19996 50.0388 6.95996 48.5988 8.15996C47.0388 9.47996 45.7188 11.64 45.4788 14.52C49.5588 14.4 54.1188 17.88 54.1188 22.68C54.1188 27.48 50.9988 31.92 42.3588 31.92C34.9188 31.92 30.2388 27.6 30.2388 21.12Z" fill="#D4D4D4"/>
</svg>
