<svg width="6" height="65" viewBox="0 0 6 65" fill="none" xmlns="http://www.w3.org/2000/svg">
<path d="M3.16406 0.5C3.16406 0.223858 2.9402 -1.20706e-08 2.66406 0C2.38792 1.20706e-08 2.16406 0.223858 2.16406 0.5L2.66406 0.5L3.16406 0.5ZM-0.00260158 61.5C-0.00260152 62.9728 1.19131 64.1667 2.66407 64.1667C4.13682 64.1667 5.33073 62.9728 5.33073 61.5C5.33073 60.0272 4.13682 58.8333 2.66407 58.8333C1.19131 58.8333 -0.00260164 60.0272 -0.00260158 61.5ZM2.16406 2.025C2.16406 2.30114 2.38792 2.525 2.66406 2.525C2.9402 2.525 3.16406 2.30114 3.16406 2.025L2.66406 2.025L2.16406 2.025ZM3.16406 5.075C3.16406 4.79886 2.94021 4.575 2.66406 4.575C2.38792 4.575 2.16406 4.79886 2.16406 5.075L2.66406 5.075L3.16406 5.075ZM2.16406 8.125C2.16406 8.40114 2.38792 8.625 2.66406 8.625C2.94021 8.625 3.16406 8.40114 3.16406 8.125L2.66406 8.125L2.16406 8.125ZM3.16406 11.175C3.16406 10.8989 2.94021 10.675 2.66406 10.675C2.38792 10.675 2.16406 10.8989 2.16406 11.175L2.66406 11.175L3.16406 11.175ZM2.16406 14.225C2.16406 14.5011 2.38792 14.725 2.66406 14.725C2.94021 14.725 3.16406 14.5011 3.16406 14.225L2.66406 14.225L2.16406 14.225ZM3.16406 17.275C3.16406 16.9989 2.94021 16.775 2.66406 16.775C2.38792 16.775 2.16406 16.9989 2.16406 17.275L2.66406 17.275L3.16406 17.275ZM2.16406 20.325C2.16406 20.6011 2.38792 20.825 2.66406 20.825C2.94021 20.825 3.16406 20.6011 3.16406 20.325L2.66406 20.325L2.16406 20.325ZM3.16406 23.375C3.16406 23.0989 2.94021 22.875 2.66406 22.875C2.38792 22.875 2.16406 23.0989 2.16406 23.375L2.66406 23.375L3.16406 23.375ZM2.16406 26.425C2.16406 26.7011 2.38792 26.925 2.66406 26.925C2.94021 26.925 3.16406 26.7011 3.16406 26.425L2.66406 26.425L2.16406 26.425ZM3.16406 29.475C3.16406 29.1989 2.94021 28.975 2.66406 28.975C2.38792 28.975 2.16406 29.1989 2.16406 29.475L2.66406 29.475L3.16406 29.475ZM2.16406 32.525C2.16406 32.8011 2.38792 33.025 2.66406 33.025C2.94021 33.025 3.16406 32.8011 3.16406 32.525L2.66406 32.525L2.16406 32.525ZM3.16406 35.575C3.16406 35.2989 2.94021 35.075 2.66406 35.075C2.38792 35.075 2.16406 35.2989 2.16406 35.575L2.66406 35.575L3.16406 35.575ZM2.16406 38.625C2.16406 38.9011 2.38792 39.125 2.66406 39.125C2.94021 39.125 3.16406 38.9011 3.16406 38.625L2.66406 38.625L2.16406 38.625ZM3.16406 41.675C3.16406 41.3988 2.94021 41.175 2.66406 41.175C2.38792 41.175 2.16406 41.3988 2.16406 41.675L2.66406 41.675L3.16406 41.675ZM2.16406 44.725C2.16406 45.0011 2.38792 45.225 2.66406 45.225C2.94021 45.225 3.16406 45.0011 3.16406 44.725L2.66406 44.725L2.16406 44.725ZM3.16406 47.775C3.16406 47.4988 2.94021 47.275 2.66406 47.275C2.38792 47.275 2.16406 47.4988 2.16406 47.775L2.66406 47.775L3.16406 47.775ZM2.16406 50.825C2.16406 51.1011 2.38792 51.325 2.66406 51.325C2.94021 51.325 3.16406 51.1011 3.16406 50.825L2.66406 50.825L2.16406 50.825ZM3.16406 53.875C3.16406 53.5989 2.94021 53.375 2.66406 53.375C2.38792 53.375 2.16406 53.5989 2.16406 53.875L2.66406 53.875L3.16406 53.875ZM2.16406 56.925C2.16406 57.2011 2.38792 57.425 2.66406 57.425C2.94021 57.425 3.16406 57.2011 3.16406 56.925L2.66406 56.925L2.16406 56.925ZM3.16407 59.975C3.16407 59.6988 2.94021 59.475 2.66407 59.475C2.38792 59.475 2.16407 59.6988 2.16407 59.975L2.66407 59.975L3.16407 59.975ZM2.66406 0.5L2.16406 0.5L2.16406 2.025L2.66406 2.025L3.16406 2.025L3.16406 0.5L2.66406 0.5ZM2.66406 5.075L2.16406 5.075L2.16406 8.125L2.66406 8.125L3.16406 8.125L3.16406 5.075L2.66406 5.075ZM2.66406 11.175L2.16406 11.175L2.16406 14.225L2.66406 14.225L3.16406 14.225L3.16406 11.175L2.66406 11.175ZM2.66406 17.275L2.16406 17.275L2.16406 20.325L2.66406 20.325L3.16406 20.325L3.16406 17.275L2.66406 17.275ZM2.66406 23.375L2.16406 23.375L2.16406 26.425L2.66406 26.425L3.16406 26.425L3.16406 23.375L2.66406 23.375ZM2.66406 29.475L2.16406 29.475L2.16406 32.525L2.66406 32.525L3.16406 32.525L3.16406 29.475L2.66406 29.475ZM2.66406 35.575L2.16406 35.575L2.16406 38.625L2.66406 38.625L3.16406 38.625L3.16406 35.575L2.66406 35.575ZM2.66406 41.675L2.16406 41.675L2.16406 44.725L2.66406 44.725L3.16406 44.725L3.16406 41.675L2.66406 41.675ZM2.66406 47.775L2.16406 47.775L2.16406 50.825L2.66406 50.825L3.16406 50.825L3.16406 47.775L2.66406 47.775ZM2.66406 53.875L2.16406 53.875L2.16406 56.925L2.66406 56.925L3.16406 56.925L3.16406 53.875L2.66406 53.875ZM2.66407 59.975L2.16407 59.975L2.16407 61.5L2.66407 61.5L3.16407 61.5L3.16407 59.975L2.66407 59.975Z" fill="#5868F3"/>
</svg>
