<svg width="67" height="82" viewBox="0 0 67 82" fill="none" xmlns="http://www.w3.org/2000/svg">
<path d="M30.2133 36.541C13.5396 36.541 0 49.9188 0 66.4551V74.2588C0 78.5323 3.51026 82.0006 7.83541 82.0006H52.654C56.9791 82.0006 60.4894 78.5323 60.4894 74.2588V66.4551C60.4894 49.9188 46.9498 36.541 30.2133 36.541Z" fill="#7986F5"/>
<path d="M34.3518 62.7387C34.3518 63.9774 33.2862 64.9684 32.0325 64.9684H28.5849C27.2686 64.9684 26.2656 63.9774 26.2656 62.7387V53.2628C26.2656 52.0241 27.3312 51.0332 28.5849 51.0332H32.0325C33.3488 51.0332 34.3518 52.0241 34.3518 53.2628V62.7387Z" fill="#C0C7FF"/>
<path d="M34.3518 45.7711C34.3518 47.0098 33.2862 48.0007 32.0325 48.0007H28.5849C27.2686 48.0007 26.2656 47.0098 26.2656 45.7711V42.6124C26.2656 41.3738 27.3312 40.3828 28.5849 40.3828H32.0325C33.3488 40.3828 34.3518 41.3738 34.3518 42.6124V45.7711Z" fill="#C0C7FF"/>
<path d="M51.5859 21.1195C51.5859 32.7631 41.9954 42.239 30.2109 42.239C18.4265 42.239 8.83594 32.7631 8.83594 21.1195C8.89862 9.4759 18.4265 0 30.2736 0C42.0581 0 51.5859 9.4759 51.5859 21.1195Z" fill="white"/>
<path d="M65.3728 61.2529C63.8287 60.389 61.8728 60.948 60.9978 62.4725L55.0787 73.0424L52.4537 69.1803C51.4758 67.7066 49.4684 67.3001 48.0272 68.2656C46.5346 69.2312 46.1228 71.213 47.1008 72.6359L52.4537 80.5125C53.1228 81.478 54.2037 81.9862 55.336 81.9354C56.5199 81.9862 57.7037 81.4272 58.3213 80.36L66.6081 65.5723C67.4316 64.0478 66.9169 62.1168 65.3728 61.2529Z" fill="white"/>
</svg>
