<svg width="170" height="55" viewBox="0 0 170 55" fill="none" xmlns="http://www.w3.org/2000/svg">
<g filter="url(#filter0_d_407_19)">
<path d="M152.053 28.5705H162.141C164.075 28.5705 165.137 29.6736 165.137 31.0048C165.137 32.0318 164.151 33.325 162.141 33.325H148.299C146.516 33.325 145.492 32.3741 145.492 30.7005V6.89037C145.492 5.48306 146.706 4.49414 148.336 4.49414H162.217C164.151 4.49414 165.137 5.55913 165.137 6.89037C165.137 7.95536 164.302 9.17249 162.217 9.17249H152.053V16.5514H160.927C162.861 16.5514 163.734 17.5783 163.734 18.9095C163.734 19.9745 163.013 21.1917 160.927 21.1917H152.053V28.5705Z" fill="white" fill-opacity="0.5"/>
<path d="M140.856 7.30876V30.13C140.856 32.6784 139.112 33.325 137.671 33.325C136.002 33.325 134.637 32.8305 133.878 31.6514L123.639 16.0949V30.3962C123.639 32.4882 122.084 33.325 120.453 33.325C118.671 33.325 117.078 32.4121 117.078 30.3962V7.15662C117.078 5.97752 118.178 4.49414 120.453 4.49414C122.539 4.49414 123.525 5.02664 124.853 7.04251L134.296 21.6101V7.30876C134.296 5.36895 135.964 4.49414 137.671 4.49414C139.415 4.49414 140.856 5.44503 140.856 7.30876Z" fill="white" fill-opacity="0.5"/>
<path d="M101.221 33.5151C94.5462 33.5151 89.7677 31.0809 89.654 24.5007C89.6161 22.6751 89.5781 20.8494 89.5781 19.0237C89.5781 17.236 89.6161 15.3723 89.654 13.4705C89.7677 6.89037 94.6978 4.49414 101.221 4.49414C107.554 4.49414 112.446 7.15662 112.75 13.4705C112.901 17.1219 112.863 21.0395 112.75 24.5007C112.636 30.8527 107.63 33.5151 101.221 33.5151ZM106.454 13.4705C106.34 10.5418 104.368 9.17249 101.221 9.17249C97.9214 9.17249 96.101 10.5798 95.9873 13.5085C95.9114 17.198 95.9114 20.8494 95.9873 24.5007C96.101 27.5055 97.9214 28.7987 101.221 28.7987C104.293 28.7987 106.265 27.3534 106.454 24.4627C106.72 20.8494 106.568 17.3121 106.454 13.4705Z" fill="white" fill-opacity="0.5"/>
<path d="M64.8594 6.85265C64.8594 4.91285 66.4143 4 68.045 4C69.7515 4 71.2306 4.91285 71.2306 6.85265V15.0683C72.4821 14.4597 73.9611 14.1174 75.7435 14.1174C81.2804 14.1174 85.7933 17.0081 85.8313 22.1809V29.7119C85.8313 31.8039 85.0349 33.3253 82.5319 33.3253C80.6357 33.3253 79.3842 32.0321 79.3842 30.3965V21.9907C79.3842 19.9749 77.6397 18.7197 75.4022 18.7197C73.1268 18.7197 71.534 19.8607 71.3064 21.9147C71.2685 22.1809 71.2306 22.4091 71.2306 22.6754V30.0923C71.2306 32.1842 70.3963 33.3253 67.9312 33.3253C66.0729 33.3253 64.8594 32.1842 64.8594 30.5487V6.85265Z" fill="white" fill-opacity="0.5"/>
<path d="M61.3217 14.1147C63.4075 14.1147 63.9385 15.2177 63.9385 16.5109C63.9385 17.4999 63.5592 18.717 61.3217 18.717H57.8707V30.4319C57.8707 32.4478 56.2779 33.3226 54.6092 33.3226C52.9406 33.3226 51.3857 32.4478 51.3857 30.4319V18.717H47.5933C45.5833 18.717 44.9766 17.614 44.9766 16.4349C44.9766 15.2558 45.4316 14.1147 47.5933 14.1147H51.3857V7.76281C51.3857 5.78497 52.9406 4.91016 54.6092 4.91016C56.2779 4.91016 57.8707 5.78497 57.8707 7.76281V14.1147H61.3217Z" fill="white" fill-opacity="0.5"/>
<path d="M37.6406 9.7437C37.6406 7.65175 39.3093 6.47266 41.3951 6.47266C43.4809 6.47266 45.1875 7.65175 45.1875 9.7437C45.1875 11.8356 43.4809 12.9767 41.3951 12.9767C39.3093 12.9767 37.6406 11.8356 37.6406 9.7437ZM38.2853 30.4349V17.1226C38.2853 15.1828 39.8402 14.3079 41.4709 14.3079C43.1017 14.3079 44.6945 15.1828 44.6945 17.1226V30.4349C44.6945 32.4508 43.1017 33.3256 41.4709 33.3256C39.8402 33.3256 38.2853 32.4508 38.2853 30.4349Z" fill="white" fill-opacity="0.5"/>
<path d="M4.16491 17.5789C3.6719 16.3617 4.27868 14.8023 6.0611 14.2318C7.84352 13.6612 9.32255 14.2318 9.92933 15.8673L13.57 26.0988L17.2107 15.7151C17.5899 14.6121 18.7277 13.9655 20.2446 14.0035C21.9512 14.0416 22.8614 14.8023 23.2406 15.8673L26.9192 26.1368L30.4461 15.8673C30.8254 14.7643 31.8493 13.6612 34.2006 14.1557C35.6796 14.46 36.9311 15.8292 36.3243 17.3507L31.0529 31.0054C30.6737 32.0323 29.2326 33.5157 26.8813 33.5157C24.2266 33.5157 23.0889 31.9943 22.7476 31.0054L20.1688 23.7026L17.7416 31.0054C17.4383 31.9943 16.1488 33.5157 13.57 33.5157C11.0291 33.5157 9.85348 31.9562 9.47425 31.0054L4.16491 17.5789Z" fill="white" fill-opacity="0.5"/>
</g>
<path d="M128.093 54.0907H124.064C122.823 54.0907 122.688 53.5807 122.688 52.9007V41.4087C122.688 40.7117 122.823 40.0997 124.064 40.0997H127.753C128.994 40.0997 129.3 40.5927 129.3 41.2897C129.3 41.8847 128.994 42.4457 127.753 42.4457H125.441V45.9307H127.668C128.909 45.9307 129.215 46.4237 129.215 47.1207C129.215 47.7157 128.909 48.2767 127.668 48.2767H125.441V51.7447H128.093C129.334 51.7447 129.64 52.3057 129.64 52.9007C129.64 53.5977 129.334 54.0907 128.093 54.0907ZM134.638 54.5157C133.873 54.5157 133.261 54.1587 133.261 53.0197V48.2427H131.629C130.388 48.2427 130.15 47.7497 130.15 47.0527C130.15 46.4407 130.405 45.8967 131.629 45.8967H133.261V41.4087C133.261 40.2697 133.907 39.9297 134.638 39.9297C135.352 39.9297 136.015 40.2357 136.015 41.4087V53.0197C136.015 54.1927 135.369 54.5157 134.638 54.5157Z" fill="#999999"/>
<path d="M119.825 54.7027H109.506C108.265 54.7027 108.129 54.1927 108.129 53.5127V50.6737C108.129 49.5347 108.775 49.1947 109.506 49.1947C110.22 49.1947 110.883 49.5007 110.883 50.6737V52.3567H119.825C121.066 52.3567 121.372 52.9177 121.372 53.5127C121.372 54.2097 121.066 54.7027 119.825 54.7027ZM108.129 48.2767C107.738 48.2937 107.296 48.1747 107.024 47.7157C106.565 46.9847 106.803 46.4917 107.534 45.9647C109.183 44.8087 109.336 43.9587 109.336 42.3777V41.4937C109.336 40.3207 110.033 40.0147 110.747 40.0147C111.461 40.0147 112.158 40.3207 112.158 41.4937V42.3267C112.158 43.9587 112.209 44.6047 113.739 45.8457C114.419 46.4067 114.708 46.8657 114.249 47.5967C113.994 47.9877 113.637 48.1747 113.229 48.1917C112.974 48.1917 112.702 48.1577 112.447 47.9707C111.818 47.5117 111.291 46.9677 110.832 46.3727C110.373 47.0357 109.812 47.5627 109.149 47.9537C108.86 48.1407 108.486 48.2597 108.129 48.2767ZM116.629 49.9087C115.898 49.9087 115.422 49.5857 115.422 48.4127V44.8257H114.623C113.399 44.8257 113.144 44.3157 113.144 43.6187C113.144 43.0747 113.331 42.4457 114.623 42.4457H115.422V41.4087C115.422 40.2697 115.881 39.9297 116.612 39.9297C117.309 39.9297 117.802 40.2697 117.802 41.4087V48.4127C117.802 49.5857 117.36 49.9087 116.629 49.9087ZM120.046 49.9257C119.315 49.9257 118.839 49.6027 118.839 48.4297V41.4087C118.839 40.2697 119.298 39.9297 120.029 39.9297C120.726 39.9297 121.219 40.2697 121.219 41.4087V48.4297C121.219 49.6027 120.777 49.9257 120.046 49.9257Z" fill="#999999"/>
<path d="M103.213 54.7203H96.0392C93.9142 54.6693 93.1322 53.4453 93.1322 51.8473C93.1322 50.1983 93.8122 49.0253 96.0732 48.9743H103.179C105.474 48.9743 106.12 50.2323 106.12 51.8473C106.12 53.4283 105.372 54.6693 103.213 54.7203ZM96.8042 52.4593H102.448C103.111 52.4593 103.383 52.3743 103.383 51.8473C103.383 51.3033 103.111 51.2183 102.448 51.2183H96.8042C96.1412 51.2183 95.8692 51.3033 95.8692 51.8473C95.8692 52.3743 96.1412 52.4593 96.8042 52.4593ZM93.5232 48.3623C93.1322 48.3453 92.7242 48.2603 92.4692 47.8013C92.0612 47.0533 92.3332 46.4413 93.1322 46.0503C93.9822 45.6253 94.6282 45.3363 95.0022 44.6563C95.1042 44.4863 95.1722 44.2653 95.2232 44.0103H93.8972C92.7922 44.0103 92.5202 43.6533 92.5202 43.0923C92.5202 42.4293 92.7922 42.1403 93.8972 42.1403H99.2862C100.391 42.1403 100.663 42.4293 100.663 43.0923C100.663 43.6533 100.391 44.0103 99.2862 44.0103H98.2322C98.2832 44.2653 98.3682 44.4863 98.4872 44.6563C98.9292 45.3363 99.4562 45.6083 100.085 45.9143C100.884 46.3223 101.19 46.8323 100.867 47.5973C100.68 48.0053 100.374 48.1753 99.9662 48.2433C99.7112 48.2603 99.4222 48.2263 99.1672 48.0903C98.5042 47.7503 97.6372 47.0703 96.8722 46.2543C96.2432 47.0023 95.4442 47.6483 94.5602 48.1073C94.2372 48.2603 93.8802 48.3623 93.5232 48.3623ZM98.4872 41.4603H94.8492C93.8292 41.4603 93.5572 41.0693 93.5572 40.6273C93.5572 40.1513 93.7782 39.7773 94.8492 39.7773H98.4872C99.5582 39.7773 99.7792 40.1513 99.7792 40.6273C99.7792 41.0693 99.5072 41.4603 98.4872 41.4603ZM104.539 48.4813C103.774 48.4813 103.162 48.1243 103.162 46.9853V41.4093C103.162 40.2703 103.808 39.9303 104.539 39.9303C105.253 39.9303 105.916 40.2363 105.916 41.4093V46.9853C105.916 48.1583 105.27 48.4813 104.539 48.4813Z" fill="#999999"/>
<path d="M88.5261 49.5187C87.9821 49.2637 87.6761 48.7197 87.8971 48.0397C87.9991 47.7507 88.0841 47.4617 88.1351 47.1897C88.1861 46.9857 88.2201 46.7817 88.2371 46.5947H80.1281C78.8871 46.5947 78.5811 46.1017 78.5811 45.4047C78.5811 44.8097 78.8871 44.2487 80.1281 44.2487H88.3561V42.6507H80.2641C79.0231 42.6507 78.7171 42.1577 78.7171 41.4607C78.7171 40.8657 79.0231 40.3047 80.2641 40.3047H89.8691C91.0931 40.3047 91.1781 40.7977 91.1781 41.5967V43.9767C91.1781 45.9997 91.1101 48.0397 90.2601 49.1617C89.8011 49.8077 89.0191 49.7397 88.5261 49.5187ZM90.9401 54.3127H79.1251C77.8841 54.3127 77.5781 53.7517 77.5781 53.1567C77.5781 52.4597 77.8841 51.9667 79.1251 51.9667H81.9981V49.5867C81.9981 48.4477 82.6441 48.1077 83.3751 48.1077C84.0891 48.1077 84.7521 48.4137 84.7521 49.5867V51.9667H90.9401C92.1811 51.9667 92.4871 52.4597 92.4871 53.1567C92.4871 53.7517 92.1811 54.3127 90.9401 54.3127Z" fill="#999999"/>
<path d="M74.396 54.7027H64.502C63.261 54.7027 63.125 54.1927 63.125 53.5127V50.1467C63.125 49.2797 63.499 48.6677 64.672 48.6677H74.566C75.807 48.6677 75.943 49.1777 75.943 49.8577V53.2237C75.943 54.3627 75.28 54.7027 74.396 54.7027ZM65.879 52.4077H73.189V50.9627H65.879V52.4077ZM69.211 47.4947H64.502C63.261 47.4947 63.125 46.9847 63.125 46.3047V41.4937C63.125 40.6267 63.227 40.0997 64.502 40.0997H68.871C70.112 40.0997 70.418 40.5927 70.418 41.2897C70.418 41.8337 70.18 42.4117 68.871 42.4117H65.879V45.1827H69.211C70.52 45.1827 70.758 45.7607 70.758 46.3047C70.758 47.0017 70.452 47.4947 69.211 47.4947ZM74.226 47.8517C73.461 47.8517 72.849 47.4947 72.849 46.3557V41.4087C72.849 40.2697 73.495 39.9297 74.226 39.9297C74.94 39.9297 75.603 40.2357 75.603 41.4087V42.6157H76.844C78.136 42.6157 78.391 43.2617 78.391 43.8057C78.391 44.4857 78.136 45.0297 76.844 45.0297H75.603V46.3557C75.603 47.5287 74.957 47.8517 74.226 47.8517Z" fill="#999999"/>
<path d="M58.5317 54.7197H51.1877C49.0627 54.6687 48.2807 53.1897 48.2807 51.5917C48.2807 49.9597 48.9437 48.5147 51.2217 48.4637H58.4977C60.7927 48.4637 61.4387 49.9767 61.4387 51.5917C61.4387 53.1727 60.6907 54.6687 58.5317 54.7197ZM51.9527 52.4077H57.7667C58.4297 52.3567 58.7017 52.2037 58.7017 51.5917C58.7017 50.9627 58.4297 50.8097 57.7667 50.7587H51.9527C51.2897 50.8097 51.0177 50.9627 51.0177 51.5917C51.0177 52.2037 51.2897 52.3567 51.9527 52.4077ZM49.1307 47.6307C48.7397 47.6477 48.2977 47.5287 48.0257 47.0697C47.5667 46.3387 47.8557 45.7607 48.5867 45.2337C50.2867 44.0267 50.7967 43.4657 50.8477 41.7657V41.4937C50.8477 40.3207 51.5447 40.0147 52.2587 40.0147C52.9727 40.0147 53.6697 40.3207 53.6697 41.4937V41.7657C53.7207 43.4657 54.1797 43.8737 55.9137 45.1147C56.6447 45.6417 56.9337 46.2197 56.4747 46.9507C56.2197 47.3417 55.8627 47.5287 55.4547 47.5457C55.1997 47.5457 54.9277 47.5117 54.6727 47.3247C53.8737 46.7297 53.0577 45.9987 52.3947 45.1657C51.7827 46.0327 51.0177 46.8147 50.1507 47.3077C49.8617 47.4947 49.4877 47.6137 49.1307 47.6307ZM59.4327 47.8857C58.6677 47.8857 58.0557 47.5287 58.0557 46.3897V41.4087C58.0557 40.2697 58.7017 39.9297 59.4327 39.9297C60.1467 39.9297 60.8097 40.2357 60.8097 41.4087V42.6157H62.0507C63.3427 42.6157 63.5977 43.2617 63.5977 43.8057C63.5977 44.4857 63.3427 45.0297 62.0507 45.0297H60.8097V46.3897C60.8097 47.5627 60.1637 47.8857 59.4327 47.8857Z" fill="#999999"/>
<path d="M45.7243 54.7027H35.3203C34.0793 54.7027 33.9433 54.1927 33.9433 53.5127V51.6427C33.9433 50.5207 34.5553 50.2147 35.3203 50.2147C36.0343 50.2147 36.6973 50.4697 36.6973 51.6427V52.4247H45.7243C47.0333 52.4247 47.2713 53.0027 47.2713 53.5467C47.2713 54.2267 47.0163 54.7027 45.7243 54.7027ZM38.2103 51.2347C37.4623 51.2347 36.8333 50.9797 36.8333 49.8577V49.2457H34.7423C33.4333 49.2457 33.1953 48.7187 33.1953 48.1747C33.1953 47.4947 33.4503 47.0697 34.7423 47.0697H41.4063C42.6983 47.0697 42.9533 47.4947 42.9533 48.1747C42.9533 48.7187 42.7153 49.2457 41.4063 49.2457H39.5873V49.8577C39.5873 51.0307 38.9243 51.2347 38.2103 51.2347ZM37.6663 46.4917C35.0313 46.4917 33.6543 45.8287 33.6543 43.2787C33.6543 40.7287 35.0313 40.0487 37.6663 40.0487C40.3013 40.0487 41.6783 40.7287 41.6783 43.2787C41.6783 46.0157 40.3013 46.4917 37.6663 46.4917ZM37.6663 44.4687C38.5673 44.4687 38.9073 44.2307 38.9073 43.2787C38.9073 42.3267 38.5673 42.0887 37.6663 42.0887C36.7653 42.0887 36.4253 42.3267 36.4253 43.2787C36.4253 44.2307 36.7653 44.4687 37.6663 44.4687ZM45.7073 50.9797C44.9423 50.9797 44.3303 50.6227 44.3303 49.4837V45.9647H43.4633C42.1713 45.9647 41.9163 45.3697 41.9163 44.8257C41.9163 44.1457 42.1713 43.6527 43.4633 43.6527H44.3303V41.4087C44.3303 40.2697 44.9763 39.9297 45.7073 39.9297C46.4213 39.9297 47.0843 40.2357 47.0843 41.4087V49.4837C47.0843 50.6567 46.4383 50.9797 45.7073 50.9797Z" fill="#999999"/>
<path d="M30.6462 48.5316H21.1772C19.9192 48.5316 19.8002 47.9706 19.8002 47.2566V41.5786C19.8002 40.4396 20.4462 40.0996 21.1772 40.0996H30.4762C31.6152 40.0996 31.7682 40.6946 31.7682 41.2896C31.7682 41.7826 31.6152 42.4626 30.4762 42.4626H22.5542V46.1686H30.6462C31.7512 46.1686 31.9382 46.8316 31.9382 47.3416C31.9382 47.9366 31.7852 48.5316 30.6462 48.5316ZM31.7682 54.3116H19.9532C18.7122 54.3116 18.4062 53.7506 18.4062 53.1556C18.4062 52.4586 18.7122 51.9656 19.9532 51.9656H31.7682C33.0092 51.9656 33.3153 52.4586 33.3153 53.1556C33.3153 53.7506 33.0092 54.3116 31.7682 54.3116Z" fill="#999999"/>
<path d="M8.31838 47.9877C5.68338 47.9877 4.34037 46.8147 4.20437 44.5707C4.15337 43.9927 4.15337 44.0437 4.20437 43.4657C4.32337 41.2047 5.64938 39.9807 8.31838 39.9807C10.8514 39.9807 12.2794 41.2047 12.4324 43.4657C12.4494 43.6187 12.4494 43.7207 12.4494 43.8057V44.2307C12.4494 44.2987 12.4494 44.4177 12.4324 44.5707C12.3814 46.8657 10.9024 47.9877 8.31838 47.9877ZM8.67538 54.5157C7.91038 54.5157 7.29838 54.1587 7.29838 53.0197V51.3197H5.15638C3.91538 51.3197 3.60938 50.7587 3.60938 50.1637C3.60938 49.4667 3.91538 48.9737 5.15638 48.9737H12.0924C13.3334 48.9737 13.6394 49.4667 13.6394 50.1637C13.6394 50.7587 13.3334 51.3197 12.0924 51.3197H10.0524V53.0197C10.0524 54.1927 9.40638 54.5157 8.67538 54.5157ZM8.31838 45.6757C8.76038 45.6757 9.62738 45.5567 9.67838 44.5707C9.69538 44.4007 9.69538 44.2817 9.69538 44.1967V43.7547C9.69538 43.6697 9.69538 43.5507 9.67838 43.3977C9.67838 42.4287 8.69238 42.3097 8.31838 42.3097C7.87638 42.3097 7.00938 42.5307 6.95838 43.4487C6.90738 44.1117 6.90738 44.0097 6.95838 44.5707C6.95838 45.5567 7.84238 45.6757 8.31838 45.6757ZM16.2914 54.5157C15.5264 54.5157 14.9144 54.1587 14.9144 53.0197V41.4087C14.9144 40.2697 15.5604 39.9297 16.2914 39.9297C17.0054 39.9297 17.6684 40.2357 17.6684 41.4087V53.0197C17.6684 54.1927 17.0224 54.5157 16.2914 54.5157Z" fill="#999999"/>
<defs>
<filter id="filter0_d_407_19" x="0" y="0" width="169.141" height="37.5156" filterUnits="userSpaceOnUse" color-interpolation-filters="sRGB">
<feFlood flood-opacity="0" result="BackgroundImageFix"/>
<feColorMatrix in="SourceAlpha" type="matrix" values="0 0 0 0 0 0 0 0 0 0 0 0 0 0 0 0 0 0 127 0" result="hardAlpha"/>
<feOffset/>
<feGaussianBlur stdDeviation="2"/>
<feComposite in2="hardAlpha" operator="out"/>
<feColorMatrix type="matrix" values="0 0 0 0 0 0 0 0 0 0 0 0 0 0 0 0 0 0 0.1 0"/>
<feBlend mode="normal" in2="BackgroundImageFix" result="effect1_dropShadow_407_19"/>
<feBlend mode="normal" in="SourceGraphic" in2="effect1_dropShadow_407_19" result="shape"/>
</filter>
</defs>
</svg>
