<svg width="85" height="94" viewBox="0 0 85 94" fill="none" xmlns="http://www.w3.org/2000/svg">
<path d="M42.4641 94C39.0611 94 36.25 91.1492 36.25 87.6983V6.30168C36.25 2.85076 38.9872 0 42.4641 0C45.8671 0 48.6782 2.85076 48.6782 6.30168V87.6983C48.6782 91.1492 45.8671 94 42.4641 94Z" fill="#7986F5"/>
<path d="M68.1333 35.7086C68.1333 37.8841 66.3578 39.6846 64.2125 39.6846H15.8312C13.6858 39.6846 10.7267 38.4093 9.24719 36.8339L1.10966 28.1315C-0.369887 26.5561 -0.369887 24.0054 1.10966 22.43L9.24719 13.7277C10.7267 12.1523 13.6858 10.877 15.8312 10.877H64.2864C66.4318 10.877 68.2072 12.6774 68.2072 14.853V35.7086H68.1333Z" fill="white"/>
<path d="M16.7927 73.3707C16.7927 75.5462 18.5682 77.3467 20.7135 77.3467H69.1688C71.3141 77.3467 74.2732 76.0714 75.7528 74.496L83.8903 65.7936C85.3699 64.2182 85.3699 61.6676 83.8903 60.0921L75.7528 51.3898C74.2732 49.8144 71.3141 48.5391 69.1688 48.5391H20.6396C18.4942 48.5391 16.7188 50.3395 16.7188 52.5151V73.3707H16.7927Z" fill="white"/>
<path d="M25.5242 25.2076C25.5242 27.1581 23.9707 28.7335 22.0473 28.7335C20.1238 28.7335 18.5703 27.1581 18.5703 25.2076C18.5703 23.2571 20.1238 21.6816 22.0473 21.6816C23.9707 21.6816 25.5242 23.2571 25.5242 25.2076Z" fill="#6877F4"/>
<path d="M40.6179 25.2076C40.6179 27.1581 39.0644 28.7335 37.141 28.7335C35.2176 28.7335 33.6641 27.1581 33.6641 25.2076C33.6641 23.2571 35.2176 21.6816 37.141 21.6816C39.0644 21.6816 40.6179 23.2571 40.6179 25.2076Z" fill="#6877F4"/>
<path d="M55.782 25.2076C55.782 27.1581 54.2285 28.7335 52.3051 28.7335C50.3817 28.7335 48.8281 27.1581 48.8281 25.2076C48.8281 23.2571 50.3817 21.6816 52.3051 21.6816C54.2285 21.6816 55.782 23.2571 55.782 25.2076Z" fill="#6877F4"/>
<path d="M35.2898 63.0923C35.2898 65.0429 33.7363 66.6183 31.8129 66.6183C29.8895 66.6183 28.3359 65.0429 28.3359 63.0923C28.3359 61.1418 29.8895 59.5664 31.8129 59.5664C33.7363 59.5664 35.2898 61.1418 35.2898 63.0923Z" fill="#6877F4"/>
<path d="M50.3836 63.0923C50.3836 65.0429 48.83 66.6183 46.9066 66.6183C44.9832 66.6183 43.4297 65.0429 43.4297 63.0923C43.4297 61.1418 44.9832 59.5664 46.9066 59.5664C48.83 59.5664 50.3836 61.1418 50.3836 63.0923Z" fill="#6877F4"/>
<path d="M65.5476 63.0923C65.5476 65.0429 63.9941 66.6183 62.0707 66.6183C60.1473 66.6183 58.5938 65.0429 58.5938 63.0923C58.5938 61.1418 60.1473 59.5664 62.0707 59.5664C63.9941 59.5664 65.5476 61.1418 65.5476 63.0923Z" fill="#6877F4"/>
</svg>
