<svg width="96" height="88" viewBox="0 0 96 88" fill="none" xmlns="http://www.w3.org/2000/svg">
<path d="M0 41.4328C0 47.8289 5.21048 53.088 11.7057 53.088H63.8819C70.3058 53.088 75.5876 47.9 75.5876 41.4328V11.6552C75.5876 5.25905 70.3772 0 63.8819 0H11.7057C5.21048 0 0 5.18798 0 11.6552V41.4328Z" fill="#628AF0"/>
<path d="M96.0017 59.7707C96.0017 66.1668 90.7912 71.4259 84.296 71.4259H32.1198C25.6959 71.4259 20.4141 66.2379 20.4141 59.7707V29.9931C20.4141 23.5969 25.6245 18.3379 32.1198 18.3379H84.296C90.7199 18.3379 96.0017 23.5259 96.0017 29.9931V59.7707Z" fill="#94B2FF"/>
<path d="M58.8176 84.7843C57.3187 87.6981 53.6785 88.8352 50.7521 87.3428C47.8257 85.8503 46.6836 82.2258 48.1826 79.312L57.6042 60.9764C59.1031 58.0626 62.7433 56.9256 65.6698 58.418C68.5962 59.9104 69.7382 63.5349 68.2393 66.4487L58.8176 84.7843Z" fill="#94B2FF"/>
<path d="M45.8947 44.8439C45.8947 47.047 44.1103 48.8947 41.8263 48.8947C39.6136 48.8947 37.7578 47.047 37.7578 44.8439C37.7578 42.6407 39.6136 40.793 41.8263 40.793C44.1103 40.793 45.8947 42.6407 45.8947 44.8439Z" fill="#E2EAFF"/>
<path d="M62.3166 44.8439C62.3166 47.047 60.4608 48.8947 58.2481 48.8947C56.0355 48.8947 54.1797 47.047 54.1797 44.8439C54.1797 42.6407 56.0355 40.793 58.2481 40.793C60.4608 40.793 62.3166 42.6407 62.3166 44.8439Z" fill="#E2EAFF"/>
<path d="M78.6603 44.8439C78.6603 47.047 76.8759 48.8947 74.5919 48.8947C72.3792 48.8947 70.5234 47.047 70.5234 44.8439C70.5234 42.6407 72.3078 40.793 74.5919 40.793C76.8759 40.793 78.6603 42.6407 78.6603 44.8439Z" fill="#E2EAFF"/>
</svg>
