<svg width="61" height="72" viewBox="0 0 61 72" fill="none" xmlns="http://www.w3.org/2000/svg">
<path d="M39.5806 0H8.02473C3.62018 0 0 3.63943 0 8.0674V63.9326C0 68.3606 3.62018 72 8.02473 72H52.9753C57.3798 72 61 68.3606 61 63.9326V21.5333L39.5806 0Z" fill="#4C79EF"/>
<path d="M39.5781 13.4659C39.5781 17.8939 43.1983 21.5333 47.6029 21.5333H60.9975L39.5781 0V13.4659Z" fill="#92AFFF"/>
<path d="M19.5163 60.3548C19.5163 62.1745 18.0682 63.6303 16.2582 63.6303C14.4481 63.6303 13 62.1745 13 60.3548V57.5645C13 55.7448 14.4481 54.2891 16.2582 54.2891C18.0682 54.2891 19.5163 55.7448 19.5163 57.5645V60.3548Z" fill="#92AFFF"/>
<path d="M29.2351 60.3547C29.2351 62.1744 27.787 63.6302 25.9769 63.6302C24.1668 63.6302 22.7188 62.1744 22.7188 60.3547V49.0118C22.7188 47.1921 24.1668 45.7363 25.9769 45.7363C27.787 45.7363 29.2351 47.1921 29.2351 49.0118V60.3547Z" fill="#92AFFF"/>
<path d="M38.8835 60.3545C38.8835 62.1742 37.4354 63.63 35.6253 63.63C33.8153 63.63 32.3672 62.1742 32.3672 60.3545V52.3478C32.3672 50.528 33.8153 49.0723 35.6253 49.0723C37.4354 49.0723 38.8835 50.528 38.8835 52.3478V60.3545Z" fill="#92AFFF"/>
<path d="M48.5944 60.354C48.5944 62.1737 47.1464 63.6295 45.3363 63.6295C43.5262 63.6295 42.0781 62.1737 42.0781 60.354V41.8536C42.0781 40.0339 43.5262 38.5781 45.3363 38.5781C47.1464 38.5781 48.5944 40.0339 48.5944 41.8536V60.354Z" fill="white"/>
</svg>
