<svg width="50" height="50" viewBox="0 0 50 50" fill="none" xmlns="http://www.w3.org/2000/svg">
<rect width="50" height="50" rx="25" fill="#5868F3"/>
<path d="M25.0373 37.9613C25.1183 38.0007 25.0778 38.0007 25.0373 37.9219C24.9563 38.0007 24.9563 38.0007 25.0373 37.9613Z" stroke="white" stroke-width="1.5" stroke-miterlimit="10" stroke-linecap="round" stroke-linejoin="round"/>
<path d="M25.0403 12C19.4939 12 15 16.4515 15 21.9273C15 23.7788 15.2834 24.7636 15.8097 26.3394C17.3077 31.0273 24.9999 38 24.9999 38C24.9999 38 32.7326 31.0273 34.19 26.3788C34.6758 24.803 34.9997 23.7788 34.9997 21.9273C35.0402 16.4515 30.5463 12 25.0403 12ZM25.0403 26.3C22.2873 26.3 20.0202 24.1333 20.0202 21.4152C20.0202 18.7364 22.2469 16.5303 25.0403 16.5303C27.7933 16.5303 30.0605 18.697 30.0605 21.4152C30.02 24.1333 27.7933 26.3 25.0403 26.3Z" stroke="white" stroke-width="2" stroke-miterlimit="10" stroke-linecap="round" stroke-linejoin="round"/>
</svg>
