<svg width="80" height="83" viewBox="0 0 80 83" fill="none" xmlns="http://www.w3.org/2000/svg">
<path d="M72.3294 66.9712L57.9722 51.5036C67.0835 39.2815 66.5313 21.9495 55.8324 10.3489C43.753 -2.70187 23.3906 -3.53049 10.3449 8.55354C-2.70083 20.6376 -3.52913 41.0078 8.55025 54.0585C19.2491 65.6592 36.5054 67.5926 49.4131 59.4446L63.7012 74.9121L72.3294 66.9712ZM16.6952 46.5319C8.82635 37.9695 9.37855 24.6426 17.8686 16.7707C26.4277 8.82974 39.7496 9.38216 47.6184 17.9446C55.4873 26.5069 55.0041 39.8339 46.445 47.7058C37.9549 55.5777 24.6331 55.0943 16.6952 46.5319Z" fill="white"/>
<path d="M79.2972 68.3532C80.2635 69.458 80.1945 71.1152 79.1591 72.151L68.1841 82.3016C67.0797 83.2683 65.4231 83.1993 64.3877 82.1635L53.5508 70.2866C52.5845 69.1818 52.6535 67.5245 53.6889 66.4888L64.6638 56.3382C65.7682 55.3715 67.4248 55.4405 68.4602 56.4763L79.2972 68.3532Z" fill="#7986F5"/>
</svg>
