<svg width="76" height="70" viewBox="0 0 76 70" fill="none" xmlns="http://www.w3.org/2000/svg">
<path d="M0 32.9578C0 38.0456 4.125 42.2289 9.26713 42.2289H50.5737C55.6593 42.2289 59.8408 38.1022 59.8408 32.9578V9.27115C59.8408 4.18332 55.7158 0 50.5737 0H9.26713C4.125 0 0 4.12679 0 9.27115V32.9578Z" fill="white" fill-opacity="0.2"/>
<path d="M75.997 47.5457C75.997 52.6335 71.872 56.8168 66.7299 56.8168H25.4234C20.3378 56.8168 16.1562 52.69 16.1562 47.5457V23.859C16.1562 18.7712 20.2813 14.5879 25.4234 14.5879H66.7299C71.8155 14.5879 75.997 18.7147 75.997 23.859V47.5457Z" fill="white"/>
<path d="M46.5585 67.4424C45.3719 69.7602 42.49 70.6647 40.1732 69.4776C37.8565 68.2904 36.9523 65.4073 38.139 63.0895L45.5979 48.5044C46.7845 46.1866 49.6664 45.2821 51.9832 46.4693C54.3 47.6565 55.2041 50.5396 54.0174 52.8573L46.5585 67.4424Z" fill="white"/>
<path d="M36.3246 35.6715C36.3246 37.424 34.9119 38.8938 33.1037 38.8938C31.352 38.8938 29.8828 37.424 29.8828 35.6715C29.8828 33.919 31.352 32.4492 33.1037 32.4492C34.9119 32.4492 36.3246 33.919 36.3246 35.6715Z" fill="#5868F3"/>
<path d="M49.3246 35.6715C49.3246 37.424 47.8554 38.8938 46.1037 38.8938C44.352 38.8938 42.8828 37.424 42.8828 35.6715C42.8828 33.919 44.352 32.4492 46.1037 32.4492C47.8554 32.4492 49.3246 33.919 49.3246 35.6715Z" fill="#5868F3"/>
<path d="M62.2699 35.6715C62.2699 37.424 60.8572 38.8938 59.049 38.8938C57.2973 38.8938 55.8281 37.424 55.8281 35.6715C55.8281 33.919 57.2408 32.4492 59.049 32.4492C60.8572 32.4492 62.2699 33.919 62.2699 35.6715Z" fill="#5868F3"/>
</svg>
