<svg width="71" height="69" viewBox="0 0 71 69" fill="none" xmlns="http://www.w3.org/2000/svg">
<path d="M45.8518 64.5686H25.0859L27.6066 53.4023H43.3911L45.8518 64.5686Z" fill="white"/>
<path d="M71 8.07123C71 3.58047 67.399 0 63.0178 0H7.98225C3.541 0 0 3.58047 0 8.07123V45.8179H71V8.07123Z" fill="white"/>
<path d="M61.9924 10.7423C61.9924 9.77134 61.2122 8.98242 60.2519 8.98242H10.678C9.71772 8.98242 8.9375 9.77134 8.9375 10.7423V45.7581H61.9924V10.7423Z" fill="#7986F5"/>
<path d="M0 45.8184V48.4885C0 52.9186 3.541 56.5598 7.98225 56.5598H63.0178C67.399 56.5598 71 52.9793 71 48.4885V45.8184H0Z" fill="white"/>
<path d="M52.216 18.873H18.7266V45.8176H52.216V18.873Z" fill="#7986F5"/>
<path d="M51.7923 65.5411C51.7923 67.4831 50.2319 69.0002 48.3713 69.0002H22.6241C20.7035 69.0002 19.2031 67.4224 19.2031 65.5411C19.2031 63.5992 20.7636 62.082 22.6241 62.082H48.3713C50.2919 62.082 51.7923 63.5992 51.7923 65.5411Z" fill="white"/>
<path d="M55.5779 39.8106L49.6363 33.8027H52.6971C53.5974 33.8027 54.3776 33.0745 54.3776 32.1035C54.3776 31.1932 53.6574 30.4043 52.6971 30.4043H45.7352C44.8349 30.4043 44.0547 31.1325 44.0547 32.1035C44.0547 32.1642 44.0547 32.1642 44.0547 32.2249C44.0547 32.2856 44.0547 32.2856 44.0547 32.3462V39.3858C44.0547 40.2961 44.7749 41.085 45.7352 41.085C46.6354 41.085 47.4156 40.3568 47.4156 39.3858V36.2908L53.2373 42.1774C53.8975 42.8449 54.9177 42.8449 55.5779 42.1774C56.2381 41.5705 56.1781 40.4782 55.5779 39.8106Z" fill="white"/>
</svg>
