<svg width="7" height="12" viewBox="0 0 7 12" fill="none" xmlns="http://www.w3.org/2000/svg">
<path d="M5.99452 0.148079C6.24315 -0.0692119 6.62204 -0.0423296 6.8408 0.208122C7.05956 0.458574 7.03535 0.837755 6.78673 1.05505L6.39062 0.601562L5.99452 0.148079ZM1.01289 6.10117C0.764262 6.31846 0.385369 6.29157 0.166609 6.04112C-0.0521519 5.79067 -0.0279405 5.41149 0.220687 5.1942L0.616788 5.64768L1.01289 6.10117ZM6.39062 0.601562L6.78673 1.05505L1.01289 6.10117L0.616788 5.64768L0.220687 5.1942L5.99452 0.148079L6.39062 0.601562Z" fill="#666666"/>
<path d="M5.9789 11.6566C6.22753 11.8739 6.60642 11.847 6.82518 11.5966C7.04394 11.3461 7.01973 10.9669 6.7711 10.7496L6.375 11.2031L5.9789 11.6566ZM0.997264 5.70352C0.748637 5.48623 0.369744 5.51311 0.150984 5.76357C-0.0677769 6.01402 -0.0435655 6.3932 0.205062 6.61049L0.601163 6.15701L0.997264 5.70352ZM6.375 11.2031L6.7711 10.7496L0.997264 5.70352L0.601163 6.15701L0.205062 6.61049L5.9789 11.6566L6.375 11.2031Z" fill="#666666"/>
</svg>
