<svg width="86" height="83" viewBox="0 0 86 83" fill="none" xmlns="http://www.w3.org/2000/svg">
<path d="M55.5436 77.6701H30.3906L33.4439 64.2383H52.5631L55.5436 77.6701Z" fill="#5381F8"/>
<path d="M86 9.70888C86 4.30695 81.6382 0 76.3314 0H9.66864C4.2891 0 0 4.30695 0 9.70888V55.1143H86V9.70888Z" fill="#5381F8"/>
<path d="M75.0919 12.9217C75.0919 11.7537 74.1468 10.8047 72.9837 10.8047H12.9363C11.7732 10.8047 10.8281 11.7537 10.8281 12.9217V55.0422H75.0919V12.9217Z" fill="#94B2FF"/>
<path d="M0 55.1152V58.3272C0 63.6561 4.2891 68.0361 9.66864 68.0361H76.3314C81.6382 68.0361 86 63.7291 86 58.3272V55.1152H0Z" fill="#5381F8"/>
<path d="M63.2444 22.7031H22.6797V55.1147H63.2444V22.7031Z" fill="#C2D3FF"/>
<path d="M62.7398 78.8387C62.7398 81.1747 60.8497 82.9996 58.5961 82.9996H27.4093C25.083 82.9996 23.2656 81.1017 23.2656 78.8387C23.2656 76.5027 25.1557 74.6777 27.4093 74.6777H58.5961C60.9224 74.6777 62.7398 76.5027 62.7398 78.8387Z" fill="#5381F8"/>
<path d="M67.3171 47.8871L60.1201 40.6602H63.8277C64.9181 40.6602 65.8632 39.7842 65.8632 38.6162C65.8632 37.5213 64.9908 36.5723 63.8277 36.5723H55.3949C54.3044 36.5723 53.3594 37.4483 53.3594 38.6162C53.3594 38.6892 53.3594 38.6892 53.3594 38.7622C53.3594 38.8352 53.3594 38.8352 53.3594 38.9082V47.3761C53.3594 48.4711 54.2317 49.4201 55.3949 49.4201C56.4853 49.4201 57.4304 48.5441 57.4304 47.3761V43.6532L64.4819 50.7341C65.2816 51.5371 66.5174 51.5371 67.3171 50.7341C68.1168 50.0041 68.0441 48.6901 67.3171 47.8871Z" fill="#E4ECFF"/>
</svg>
