<svg width="14" height="12" viewBox="0 0 14 12" fill="none" xmlns="http://www.w3.org/2000/svg">
<path d="M0.997664 0.148079C0.749037 -0.0692119 0.370144 -0.0423296 0.151383 0.208122C-0.0673775 0.458574 -0.0431659 0.837755 0.205461 1.05505L0.601562 0.601562L0.997664 0.148079ZM5.9793 6.10117C6.22793 6.31846 6.60682 6.29157 6.82558 6.04112C7.04434 5.79067 7.02013 5.41149 6.7715 5.1942L6.3754 5.64768L5.9793 6.10117ZM0.601562 0.601562L0.205461 1.05505L5.9793 6.10117L6.3754 5.64768L6.7715 5.1942L0.997664 0.148079L0.601562 0.601562Z" fill="#666666"/>
<path d="M1.01329 11.6566C0.764662 11.8739 0.385769 11.847 0.167008 11.5966C-0.0517525 11.3461 -0.0275409 10.9669 0.221086 10.7496L0.617188 11.2031L1.01329 11.6566ZM5.99492 5.70352C6.24355 5.48623 6.62244 5.51311 6.8412 5.76357C7.05996 6.01402 7.03575 6.3932 6.78713 6.61049L6.39102 6.15701L5.99492 5.70352ZM0.617188 11.2031L0.221086 10.7496L5.99492 5.70352L6.39102 6.15701L6.78713 6.61049L1.01329 11.6566L0.617188 11.2031Z" fill="#666666"/>
<path d="M7.78673 0.148079C7.5381 -0.0692119 7.15921 -0.0423296 6.94045 0.208122C6.72169 0.458574 6.7459 0.837755 6.99452 1.05505L7.39062 0.601562L7.78673 0.148079ZM12.7684 6.10117C13.017 6.31846 13.3959 6.29157 13.6146 6.04112C13.8334 5.79067 13.8092 5.41149 13.5606 5.1942L13.1645 5.64768L12.7684 6.10117ZM7.39062 0.601562L6.99452 1.05505L12.7684 6.10117L13.1645 5.64768L13.5606 5.1942L7.78673 0.148079L7.39062 0.601562Z" fill="#666666"/>
<path d="M7.80235 11.6566C7.55372 11.8739 7.17483 11.847 6.95607 11.5966C6.73731 11.3461 6.76152 10.9669 7.01015 10.7496L7.40625 11.2031L7.80235 11.6566ZM12.784 5.70352C13.0326 5.48623 13.4115 5.51311 13.6303 5.76357C13.849 6.01402 13.8248 6.3932 13.5762 6.61049L13.1801 6.15701L12.784 5.70352ZM7.40625 11.2031L7.01015 10.7496L12.784 5.70352L13.1801 6.15701L13.5762 6.61049L7.80235 11.6566L7.40625 11.2031Z" fill="#666666"/>
</svg>
