<svg width="353" height="294" viewBox="0 0 353 294" fill="none" xmlns="http://www.w3.org/2000/svg">
<path d="M225.5 -21C148.365 -21 86 41.3647 86 118.5C86 195.635 148.365 258 225.5 258C302.635 258 365 195.635 365 118.5C365 41.3647 302.635 -21 225.5 -21ZM225.5 232.726C162.479 232.726 111.274 181.521 111.274 118.5C111.274 55.4788 162.479 4.60235 225.5 4.60235C288.521 4.60235 339.726 55.8071 339.726 118.828C339.726 181.849 288.521 232.726 225.5 232.726Z" fill="#F3F5FF"/>
<path d="M131.952 110.619C127.685 110.619 124.074 114.23 124.074 118.497C124.074 122.764 127.685 126.374 131.952 126.374C136.219 126.374 139.83 122.764 139.83 118.497C139.83 114.23 136.219 110.619 131.952 110.619Z" fill="#F3F5FF"/>
<path d="M319.046 126.374C323.396 126.374 326.923 122.847 326.923 118.497C326.923 114.146 323.396 110.619 319.046 110.619C314.695 110.619 311.168 114.146 311.168 118.497C311.168 122.847 314.695 126.374 319.046 126.374Z" fill="#F3F5FF"/>
<path d="M225.497 32.8295C229.764 32.8295 233.374 29.2189 233.374 24.9519C233.374 20.6848 229.764 17.0742 225.497 17.0742C221.23 17.0742 217.619 20.6848 217.619 24.9519C217.619 29.2189 221.23 32.8295 225.497 32.8295Z" fill="#F3F5FF"/>
<path d="M225.497 204.168C221.23 204.168 217.619 207.779 217.619 212.046C217.619 216.313 221.23 219.923 225.497 219.923C229.764 219.923 233.374 216.313 233.374 212.046C233.374 207.779 230.092 204.168 225.497 204.168Z" fill="#F3F5FF"/>
<path d="M240.93 122.766C241.259 121.453 241.587 120.14 241.587 118.827C241.587 114.56 239.946 110.293 236.991 107.667V86.66C236.991 80.4235 232.068 75.5 225.831 75.5C219.595 75.5 214.671 80.4235 214.671 86.66V107.667C211.717 110.621 210.076 114.56 210.076 118.827C210.076 127.689 217.297 134.582 225.831 134.582C227.144 134.582 228.457 134.254 229.77 133.926L263.25 167.406C266.204 170.36 271.456 170.36 274.41 167.406C277.364 164.452 277.364 159.2 274.41 156.246L240.93 122.766Z" fill="#F3F5FF"/>
<path d="M57 180C25.4824 180 0 205.482 0 237C0 268.518 25.4824 294 57 294C88.5176 294 114 268.518 114 237C114 205.482 88.5176 180 57 180ZM57 283.673C31.2494 283.673 10.3271 262.751 10.3271 237C10.3271 211.249 31.2494 190.461 57 190.461C82.7506 190.461 103.673 211.384 103.673 237.134C103.673 262.885 82.7506 283.673 57 283.673Z" fill="#EEF1FF"/>
<path d="M18.7755 233.779C17.0319 233.779 15.5566 235.255 15.5566 236.998C15.5566 238.742 17.0319 240.217 18.7755 240.217C20.519 240.217 21.9943 238.742 21.9943 236.998C21.9943 235.255 20.519 233.779 18.7755 233.779Z" fill="#EEF1FF"/>
<path d="M95.2227 240.217C97.0004 240.217 98.4416 238.776 98.4416 236.998C98.4416 235.22 97.0004 233.779 95.2227 233.779C93.445 233.779 92.0039 235.22 92.0039 236.998C92.0039 238.776 93.445 240.217 95.2227 240.217Z" fill="#EEF1FF"/>
<path d="M56.9981 201.994C58.7417 201.994 60.2169 200.519 60.2169 198.775C60.2169 197.032 58.7417 195.557 56.9981 195.557C55.2546 195.557 53.7793 197.032 53.7793 198.775C53.7793 200.519 55.2546 201.994 56.9981 201.994Z" fill="#EEF1FF"/>
<path d="M56.9981 272.004C55.2546 272.004 53.7793 273.479 53.7793 275.223C53.7793 276.966 55.2546 278.442 56.9981 278.442C58.7417 278.442 60.2169 276.966 60.2169 275.223C60.2169 273.479 58.8758 272.004 56.9981 272.004Z" fill="#EEF1FF"/>
<path d="M63.3043 238.743C63.4384 238.206 63.5726 237.67 63.5726 237.133C63.5726 235.39 62.902 233.646 61.6949 232.573V223.99C61.6949 221.441 59.6831 219.43 57.1349 219.43C54.5867 219.43 52.5749 221.441 52.5749 223.99V232.573C51.3679 233.78 50.6973 235.39 50.6973 237.133C50.6973 240.754 53.6479 243.571 57.1349 243.571C57.6714 243.571 58.2079 243.437 58.7443 243.303L72.4243 256.983C73.6314 258.19 75.7773 258.19 76.9843 256.983C78.1914 255.776 78.1914 253.63 76.9843 252.423L63.3043 238.743Z" fill="#EEF1FF"/>
</svg>
