<svg width="214" height="67" viewBox="0 0 214 67" fill="none" xmlns="http://www.w3.org/2000/svg">
<g filter="url(#filter0_d_407_114)">
<path d="M192.436 35.2723H205.276C207.737 35.2723 209.089 36.6762 209.089 38.3706C209.089 39.6776 207.834 41.3236 205.276 41.3236H187.658C185.389 41.3236 184.086 40.1133 184.086 37.9833V7.67873C184.086 5.88756 185.631 4.62891 187.706 4.62891H205.372C207.834 4.62891 209.089 5.98438 209.089 7.67873C209.089 9.0342 208.027 10.5833 205.372 10.5833H192.436V19.9748H203.731C206.193 19.9748 207.303 21.2819 207.303 22.9762C207.303 24.3317 206.386 25.8808 203.731 25.8808H192.436V35.2723Z" fill="#5868F3"/>
<path d="M178.186 8.21123V37.2571C178.186 40.5006 175.966 41.3236 174.131 41.3236C172.008 41.3236 170.27 40.6942 169.305 39.1935L156.272 19.3939V37.596C156.272 40.2585 154.293 41.3236 152.218 41.3236C149.949 41.3236 147.922 40.1617 147.922 37.596V8.0176C147.922 6.51689 149.322 4.62891 152.218 4.62891C154.872 4.62891 156.127 5.30664 157.817 7.87237L169.835 26.4133V8.21123C169.835 5.74233 171.959 4.62891 174.131 4.62891C176.352 4.62891 178.186 5.83915 178.186 8.21123Z" fill="#5868F3"/>
<path d="M127.74 41.5656C119.245 41.5656 113.163 38.4674 113.018 30.0925C112.97 27.7688 112.922 25.4451 112.922 23.1215C112.922 20.8462 112.97 18.4741 113.018 16.0536C113.163 7.67873 119.438 4.62891 127.74 4.62891C135.801 4.62891 142.027 8.0176 142.414 16.0536C142.607 20.701 142.558 25.6872 142.414 30.0925C142.269 38.1769 135.897 41.5656 127.74 41.5656ZM134.401 16.0536C134.256 12.3261 131.746 10.5833 127.74 10.5833C123.541 10.5833 121.224 12.3745 121.079 16.102C120.983 20.7978 120.983 25.4451 121.079 30.0925C121.224 33.9169 123.541 35.5628 127.74 35.5628C131.65 35.5628 134.16 33.7232 134.401 30.0441C134.739 25.4451 134.546 20.943 134.401 16.0536Z" fill="#5868F3"/>
<path d="M81.4609 7.63074C81.4609 5.16184 83.4399 4 85.5154 4C87.6875 4 89.5699 5.16184 89.5699 7.63074V18.0873C91.1628 17.3127 93.0452 16.877 95.3138 16.877C102.361 16.877 108.105 20.5562 108.153 27.1399V36.725C108.153 39.3876 107.139 41.324 103.954 41.324C101.54 41.324 99.9475 39.678 99.9475 37.5964V26.8979C99.9475 24.3321 97.7272 22.7346 94.8794 22.7346C91.9833 22.7346 89.9561 24.1869 89.6665 26.801C89.6182 27.1399 89.5699 27.4304 89.5699 27.7692V37.2091C89.5699 39.8717 88.5081 41.324 85.3706 41.324C83.0055 41.324 81.4609 39.8717 81.4609 37.7901V7.63074Z" fill="white"/>
<path d="M76.9519 16.8753C79.6066 16.8753 80.2824 18.2792 80.2824 19.9252C80.2824 21.1838 79.7997 22.7329 76.9519 22.7329H72.5595V37.6432C72.5595 40.2089 70.5323 41.3223 68.4085 41.3223C66.2847 41.3223 64.3057 40.2089 64.3057 37.6432V22.7329H59.4789C56.9207 22.7329 56.1484 21.329 56.1484 19.8283C56.1484 18.3276 56.7276 16.8753 59.4789 16.8753H64.3057V8.79089C64.3057 6.27358 66.2847 5.16016 68.4085 5.16016C70.5323 5.16016 72.5595 6.27358 72.5595 8.79089V16.8753H76.9519Z" fill="white"/>
<path d="M46.8203 11.3097C46.8203 8.64719 48.9441 7.14648 51.5988 7.14648C54.2536 7.14648 56.4256 8.64719 56.4256 11.3097C56.4256 13.9723 54.2536 15.4246 51.5988 15.4246C48.9441 15.4246 46.8203 13.9723 46.8203 11.3097ZM47.6409 37.6447V20.7012C47.6409 18.2323 49.6198 17.1189 51.6954 17.1189C53.7709 17.1189 55.7981 18.2323 55.7981 20.7012V37.6447C55.7981 40.2104 53.7709 41.3238 51.6954 41.3238C49.6198 41.3238 47.6409 40.2104 47.6409 37.6447Z" fill="white"/>
<path d="M4.20989 21.283C3.58241 19.7339 4.35469 17.7491 6.62328 17.023C8.89187 16.2968 10.7743 17.023 11.5466 19.1046L16.1803 32.1268L20.814 18.9109C21.2967 17.507 22.7448 16.6841 24.6755 16.7325C26.8475 16.7809 28.0059 17.7491 28.4886 19.1046L33.1706 32.1752L37.6595 19.1046C38.1422 17.7007 39.4454 16.2968 42.438 16.9261C44.3205 17.3134 45.9133 19.0562 45.141 20.9926L38.4318 38.3717C37.9491 39.6788 36.115 41.5667 33.1223 41.5667C29.7436 41.5667 28.2956 39.6303 27.8611 38.3717L24.5789 29.077L21.4898 38.3717C21.1036 39.6303 19.4625 41.5667 16.1803 41.5667C12.9464 41.5667 11.4501 39.5819 10.9674 38.3717L4.20989 21.283Z" fill="white"/>
</g>
<path d="M160.774 65.4608H156.034C154.574 65.4608 154.414 64.8608 154.414 64.0608V50.5408C154.414 49.7208 154.574 49.0008 156.034 49.0008H160.374C161.834 49.0008 162.194 49.5808 162.194 50.4008C162.194 51.1008 161.834 51.7608 160.374 51.7608H157.654V55.8608H160.274C161.734 55.8608 162.094 56.4408 162.094 57.2608C162.094 57.9608 161.734 58.6208 160.274 58.6208H157.654V62.7008H160.774C162.234 62.7008 162.594 63.3608 162.594 64.0608C162.594 64.8808 162.234 65.4608 160.774 65.4608ZM168.474 65.9608C167.574 65.9608 166.854 65.5408 166.854 64.2008V58.5808H164.934C163.474 58.5808 163.194 58.0008 163.194 57.1808C163.194 56.4608 163.494 55.8208 164.934 55.8208H166.854V50.5408C166.854 49.2008 167.614 48.8008 168.474 48.8008C169.314 48.8008 170.094 49.1608 170.094 50.5408V64.2008C170.094 65.5808 169.334 65.9608 168.474 65.9608Z" fill="white"/>
<path d="M149.844 66.1808H137.704C136.244 66.1808 136.084 65.5808 136.084 64.7808V61.4408C136.084 60.1008 136.844 59.7008 137.704 59.7008C138.544 59.7008 139.324 60.0608 139.324 61.4408V63.4208H149.844C151.304 63.4208 151.664 64.0808 151.664 64.7808C151.664 65.6008 151.304 66.1808 149.844 66.1808ZM136.084 58.6208C135.624 58.6408 135.104 58.5008 134.784 57.9608C134.244 57.1008 134.524 56.5208 135.384 55.9008C137.324 54.5408 137.504 53.5408 137.504 51.6808V50.6408C137.504 49.2608 138.324 48.9008 139.164 48.9008C140.004 48.9008 140.824 49.2608 140.824 50.6408V51.6208C140.824 53.5408 140.884 54.3008 142.684 55.7608C143.484 56.4208 143.824 56.9608 143.284 57.8208C142.984 58.2808 142.564 58.5008 142.084 58.5208C141.784 58.5208 141.464 58.4808 141.164 58.2608C140.424 57.7208 139.804 57.0808 139.264 56.3808C138.724 57.1608 138.064 57.7808 137.284 58.2408C136.944 58.4608 136.504 58.6008 136.084 58.6208ZM146.084 60.5408C145.224 60.5408 144.664 60.1608 144.664 58.7808V54.5608H143.724C142.284 54.5608 141.984 53.9608 141.984 53.1408C141.984 52.5008 142.204 51.7608 143.724 51.7608H144.664V50.5408C144.664 49.2008 145.204 48.8008 146.064 48.8008C146.884 48.8008 147.464 49.2008 147.464 50.5408V58.7808C147.464 60.1608 146.944 60.5408 146.084 60.5408ZM150.104 60.5608C149.244 60.5608 148.684 60.1808 148.684 58.8008V50.5408C148.684 49.2008 149.224 48.8008 150.084 48.8008C150.904 48.8008 151.484 49.2008 151.484 50.5408V58.8008C151.484 60.1808 150.964 60.5608 150.104 60.5608Z" fill="white"/>
<path d="M129.103 66.2011H120.663C118.163 66.1411 117.243 64.7011 117.243 62.8211C117.243 60.8811 118.043 59.5011 120.703 59.4411H129.063C131.763 59.4411 132.523 60.9211 132.523 62.8211C132.523 64.6811 131.643 66.1411 129.103 66.2011ZM121.563 63.5411H128.203C128.983 63.5411 129.303 63.4411 129.303 62.8211C129.303 62.1811 128.983 62.0811 128.203 62.0811H121.563C120.783 62.0811 120.463 62.1811 120.463 62.8211C120.463 63.4411 120.783 63.5411 121.563 63.5411ZM117.703 58.7211C117.243 58.7011 116.763 58.6011 116.463 58.0611C115.983 57.1811 116.303 56.4611 117.243 56.0011C118.243 55.5011 119.003 55.1611 119.443 54.3611C119.563 54.1611 119.643 53.9011 119.703 53.6011H118.143C116.843 53.6011 116.523 53.1811 116.523 52.5211C116.523 51.7411 116.843 51.4011 118.143 51.4011H124.483C125.783 51.4011 126.103 51.7411 126.103 52.5211C126.103 53.1811 125.783 53.6011 124.483 53.6011H123.243C123.303 53.9011 123.403 54.1611 123.543 54.3611C124.063 55.1611 124.683 55.4811 125.423 55.8411C126.363 56.3211 126.723 56.9211 126.343 57.8211C126.123 58.3011 125.763 58.5011 125.283 58.5811C124.983 58.6011 124.643 58.5611 124.343 58.4011C123.563 58.0011 122.543 57.2011 121.643 56.2411C120.903 57.1211 119.963 57.8811 118.923 58.4211C118.543 58.6011 118.123 58.7211 117.703 58.7211ZM123.543 50.6011H119.263C118.063 50.6011 117.743 50.1411 117.743 49.6211C117.743 49.0611 118.003 48.6211 119.263 48.6211H123.543C124.803 48.6211 125.063 49.0611 125.063 49.6211C125.063 50.1411 124.743 50.6011 123.543 50.6011ZM130.663 58.8611C129.763 58.8611 129.043 58.4411 129.043 57.1011V50.5411C129.043 49.2011 129.803 48.8011 130.663 48.8011C131.503 48.8011 132.283 49.1611 132.283 50.5411V57.1011C132.283 58.4811 131.523 58.8611 130.663 58.8611Z" fill="white"/>
<path d="M110.614 60.0822C109.974 59.7822 109.614 59.1422 109.874 58.3422C109.994 58.0022 110.094 57.6622 110.154 57.3422C110.214 57.1022 110.254 56.8622 110.274 56.6422H100.734C99.2744 56.6422 98.9144 56.0622 98.9144 55.2422C98.9144 54.5422 99.2744 53.8822 100.734 53.8822H110.414V52.0022H100.894C99.4344 52.0022 99.0744 51.4222 99.0744 50.6022C99.0744 49.9022 99.4344 49.2422 100.894 49.2422H112.194C113.634 49.2422 113.734 49.8222 113.734 50.7622V53.5622C113.734 55.9422 113.654 58.3422 112.654 59.6622C112.114 60.4222 111.194 60.3422 110.614 60.0822ZM113.454 65.7222H99.5544C98.0944 65.7222 97.7344 65.0622 97.7344 64.3622C97.7344 63.5422 98.0944 62.9622 99.5544 62.9622H102.934V60.1622C102.934 58.8222 103.694 58.4222 104.554 58.4222C105.394 58.4222 106.174 58.7822 106.174 60.1622V62.9622H113.454C114.914 62.9622 115.274 63.5422 115.274 64.3622C115.274 65.0622 114.914 65.7222 113.454 65.7222Z" fill="white"/>
<path d="M92.7912 66.1808H81.1512C79.6912 66.1808 79.5312 65.5808 79.5312 64.7808V60.8208C79.5312 59.8008 79.9712 59.0808 81.3512 59.0808H92.9912C94.4512 59.0808 94.6113 59.6808 94.6113 60.4808V64.4408C94.6113 65.7808 93.8312 66.1808 92.7912 66.1808ZM82.7712 63.4808H91.3712V61.7808H82.7712V63.4808ZM86.6912 57.7008H81.1512C79.6912 57.7008 79.5312 57.1008 79.5312 56.3008V50.6408C79.5312 49.6208 79.6512 49.0008 81.1512 49.0008H86.2912C87.7512 49.0008 88.1112 49.5808 88.1112 50.4008C88.1112 51.0408 87.8312 51.7208 86.2912 51.7208H82.7712V54.9808H86.6912C88.2312 54.9808 88.5112 55.6608 88.5112 56.3008C88.5112 57.1208 88.1512 57.7008 86.6912 57.7008ZM92.5912 58.1208C91.6912 58.1208 90.9712 57.7008 90.9712 56.3608V50.5408C90.9712 49.2008 91.7312 48.8008 92.5912 48.8008C93.4312 48.8008 94.2113 49.1608 94.2113 50.5408V51.9608H95.6712C97.1913 51.9608 97.4912 52.7208 97.4912 53.3608C97.4912 54.1608 97.1913 54.8008 95.6712 54.8008H94.2113V56.3608C94.2113 57.7408 93.4512 58.1208 92.5912 58.1208Z" fill="white"/>
<path d="M72.9325 66.2008H64.2925C61.7925 66.1408 60.8725 64.4008 60.8725 62.5208C60.8725 60.6008 61.6525 58.9008 64.3325 58.8408H72.8925C75.5925 58.8408 76.3525 60.6208 76.3525 62.5208C76.3525 64.3808 75.4725 66.1408 72.9325 66.2008ZM65.1925 63.4808H72.0325C72.8125 63.4208 73.1325 63.2408 73.1325 62.5208C73.1325 61.7808 72.8125 61.6008 72.0325 61.5408H65.1925C64.4125 61.6008 64.0925 61.7808 64.0925 62.5208C64.0925 63.2408 64.4125 63.4208 65.1925 63.4808ZM61.8725 57.8608C61.4125 57.8808 60.8925 57.7408 60.5725 57.2008C60.0325 56.3408 60.3725 55.6608 61.2325 55.0408C63.2325 53.6208 63.8325 52.9608 63.8925 50.9608V50.6408C63.8925 49.2608 64.7125 48.9008 65.5525 48.9008C66.3925 48.9008 67.2125 49.2608 67.2125 50.6408V50.9608C67.2725 52.9608 67.8125 53.4408 69.8525 54.9008C70.7125 55.5208 71.0525 56.2008 70.5125 57.0608C70.2125 57.5208 69.7925 57.7408 69.3125 57.7608C69.0125 57.7608 68.6925 57.7208 68.3925 57.5008C67.4525 56.8008 66.4925 55.9408 65.7125 54.9608C64.9925 55.9808 64.0925 56.9008 63.0725 57.4808C62.7325 57.7008 62.2925 57.8408 61.8725 57.8608ZM73.9925 58.1608C73.0925 58.1608 72.3725 57.7408 72.3725 56.4008V50.5408C72.3725 49.2008 73.1325 48.8008 73.9925 48.8008C74.8325 48.8008 75.6125 49.1608 75.6125 50.5408V51.9608H77.0725C78.5925 51.9608 78.8925 52.7208 78.8925 53.3608C78.8925 54.1608 78.5925 54.8008 77.0725 54.8008H75.6125V56.4008C75.6125 57.7808 74.8525 58.1608 73.9925 58.1608Z" fill="white"/>
<path d="M56.6697 66.1808H44.4297C42.9697 66.1808 42.8097 65.5808 42.8097 64.7808V62.5808C42.8097 61.2608 43.5297 60.9008 44.4297 60.9008C45.2697 60.9008 46.0497 61.2008 46.0497 62.5808V63.5008H56.6697C58.2097 63.5008 58.4897 64.1808 58.4897 64.8208C58.4897 65.6208 58.1897 66.1808 56.6697 66.1808ZM47.8297 62.1008C46.9497 62.1008 46.2097 61.8008 46.2097 60.4808V59.7608H43.7497C42.2097 59.7608 41.9297 59.1408 41.9297 58.5008C41.9297 57.7008 42.2297 57.2008 43.7497 57.2008H51.5897C53.1097 57.2008 53.4097 57.7008 53.4097 58.5008C53.4097 59.1408 53.1297 59.7608 51.5897 59.7608H49.4497V60.4808C49.4497 61.8608 48.6697 62.1008 47.8297 62.1008ZM47.1897 56.5208C44.0897 56.5208 42.4697 55.7408 42.4697 52.7408C42.4697 49.7408 44.0897 48.9408 47.1897 48.9408C50.2897 48.9408 51.9097 49.7408 51.9097 52.7408C51.9097 55.9608 50.2897 56.5208 47.1897 56.5208ZM47.1897 54.1408C48.2497 54.1408 48.6497 53.8608 48.6497 52.7408C48.6497 51.6208 48.2497 51.3408 47.1897 51.3408C46.1297 51.3408 45.7297 51.6208 45.7297 52.7408C45.7297 53.8608 46.1297 54.1408 47.1897 54.1408ZM56.6497 61.8008C55.7497 61.8008 55.0297 61.3808 55.0297 60.0408V55.9008H54.0097C52.4897 55.9008 52.1897 55.2008 52.1897 54.5608C52.1897 53.7608 52.4897 53.1808 54.0097 53.1808H55.0297V50.5408C55.0297 49.2008 55.7897 48.8008 56.6497 48.8008C57.4897 48.8008 58.2697 49.1608 58.2697 50.5408V60.0408C58.2697 61.4208 57.5097 61.8008 56.6497 61.8008Z" fill="white"/>
<path d="M37.7203 58.92H26.5803C25.1003 58.92 24.9603 58.26 24.9603 57.42V50.74C24.9603 49.4 25.7203 49 26.5803 49H37.5203C38.8603 49 39.0403 49.7 39.0403 50.4C39.0403 50.98 38.8603 51.78 37.5203 51.78H28.2003V56.14H37.7203C39.0203 56.14 39.2403 56.92 39.2403 57.52C39.2403 58.22 39.0603 58.92 37.7203 58.92ZM39.0403 65.72H25.1403C23.6803 65.72 23.3203 65.06 23.3203 64.36C23.3203 63.54 23.6803 62.96 25.1403 62.96H39.0403C40.5003 62.96 40.8603 63.54 40.8603 64.36C40.8603 65.06 40.5003 65.72 39.0403 65.72Z" fill="white"/>
<path d="M10.2587 58.2808C7.15875 58.2808 5.57875 56.9008 5.41875 54.2608C5.35875 53.5808 5.35875 53.6408 5.41875 52.9608C5.55875 50.3008 7.11875 48.8608 10.2587 48.8608C13.2387 48.8608 14.9188 50.3008 15.0988 52.9608C15.1188 53.1408 15.1188 53.2608 15.1188 53.3608V53.8608C15.1188 53.9408 15.1188 54.0808 15.0988 54.2608C15.0388 56.9608 13.2988 58.2808 10.2587 58.2808ZM10.6788 65.9608C9.77875 65.9608 9.05875 65.5408 9.05875 64.2008V62.2008H6.53875C5.07875 62.2008 4.71875 61.5408 4.71875 60.8408C4.71875 60.0208 5.07875 59.4408 6.53875 59.4408H14.6988C16.1588 59.4408 16.5188 60.0208 16.5188 60.8408C16.5188 61.5408 16.1588 62.2008 14.6988 62.2008H12.2987V64.2008C12.2987 65.5808 11.5387 65.9608 10.6788 65.9608ZM10.2587 55.5608C10.7787 55.5608 11.7988 55.4208 11.8588 54.2608C11.8788 54.0608 11.8788 53.9208 11.8788 53.8208V53.3008C11.8788 53.2008 11.8788 53.0608 11.8588 52.8808C11.8588 51.7408 10.6987 51.6008 10.2587 51.6008C9.73875 51.6008 8.71875 51.8608 8.65875 52.9408C8.59875 53.7208 8.59875 53.6008 8.65875 54.2608C8.65875 55.4208 9.69875 55.5608 10.2587 55.5608ZM19.6388 65.9608C18.7388 65.9608 18.0188 65.5408 18.0188 64.2008V50.5408C18.0188 49.2008 18.7788 48.8008 19.6388 48.8008C20.4788 48.8008 21.2588 49.1608 21.2588 50.5408V64.2008C21.2588 65.5808 20.4988 65.9608 19.6388 65.9608Z" fill="white"/>
<defs>
<filter id="filter0_d_407_114" x="0" y="0" width="213.086" height="45.5664" filterUnits="userSpaceOnUse" color-interpolation-filters="sRGB">
<feFlood flood-opacity="0" result="BackgroundImageFix"/>
<feColorMatrix in="SourceAlpha" type="matrix" values="0 0 0 0 0 0 0 0 0 0 0 0 0 0 0 0 0 0 127 0" result="hardAlpha"/>
<feOffset/>
<feGaussianBlur stdDeviation="2"/>
<feComposite in2="hardAlpha" operator="out"/>
<feColorMatrix type="matrix" values="0 0 0 0 0 0 0 0 0 0 0 0 0 0 0 0 0 0 0.1 0"/>
<feBlend mode="normal" in2="BackgroundImageFix" result="effect1_dropShadow_407_114"/>
<feBlend mode="normal" in="SourceGraphic" in2="effect1_dropShadow_407_114" result="shape"/>
</filter>
</defs>
</svg>
