<svg width="206" height="65" viewBox="0 0 206 65" fill="none" xmlns="http://www.w3.org/2000/svg">
<path d="M188.436 31.2723H201.276C203.737 31.2723 205.089 32.6762 205.089 34.3706C205.089 35.6776 203.834 37.3236 201.276 37.3236H183.658C181.389 37.3236 180.086 36.1133 180.086 33.9833V3.67873C180.086 1.88756 181.631 0.628906 183.706 0.628906H201.372C203.834 0.628906 205.089 1.98438 205.089 3.67873C205.089 5.0342 204.027 6.58332 201.372 6.58332H188.436V15.9748H199.731C202.193 15.9748 203.303 17.2819 203.303 18.9762C203.303 20.3317 202.386 21.8808 199.731 21.8808H188.436V31.2723Z" fill="#5868F3"/>
<path d="M174.186 4.21123V33.2571C174.186 36.5006 171.966 37.3236 170.131 37.3236C168.008 37.3236 166.27 36.6942 165.305 35.1935L152.272 15.3939V33.596C152.272 36.2585 150.293 37.3236 148.218 37.3236C145.949 37.3236 143.922 36.1617 143.922 33.596V4.0176C143.922 2.51689 145.322 0.628906 148.218 0.628906C150.872 0.628906 152.127 1.30664 153.817 3.87237L165.835 22.4133V4.21123C165.835 1.74233 167.959 0.628906 170.131 0.628906C172.352 0.628906 174.186 1.83915 174.186 4.21123Z" fill="#5868F3"/>
<path d="M123.74 37.5656C115.245 37.5656 109.163 34.4674 109.018 26.0925C108.97 23.7688 108.922 21.4451 108.922 19.1215C108.922 16.8462 108.97 14.4741 109.018 12.0536C109.163 3.67873 115.438 0.628906 123.74 0.628906C131.801 0.628906 138.027 4.0176 138.414 12.0536C138.607 16.701 138.558 21.6872 138.414 26.0925C138.269 34.1769 131.897 37.5656 123.74 37.5656ZM130.401 12.0536C130.256 8.32607 127.746 6.58332 123.74 6.58332C119.541 6.58332 117.224 8.37448 117.079 12.102C116.983 16.7978 116.983 21.4451 117.079 26.0925C117.224 29.9169 119.541 31.5628 123.74 31.5628C127.65 31.5628 130.16 29.7232 130.401 26.0441C130.739 21.4451 130.546 16.943 130.401 12.0536Z" fill="#5868F3"/>
<path d="M77.4609 3.63074C77.4609 1.16184 79.4399 0 81.5154 0C83.6875 0 85.5699 1.16184 85.5699 3.63074V14.0873C87.1628 13.3127 89.0452 12.877 91.3138 12.877C98.3609 12.877 104.105 16.5562 104.153 23.1399V32.725C104.153 35.3876 103.139 37.324 99.9538 37.324C97.5404 37.324 95.9475 35.678 95.9475 33.5964V22.8979C95.9475 20.3321 93.7272 18.7346 90.8794 18.7346C87.9833 18.7346 85.9561 20.1869 85.6665 22.801C85.6182 23.1399 85.5699 23.4304 85.5699 23.7692V33.2091C85.5699 35.8717 84.5081 37.324 81.3706 37.324C79.0055 37.324 77.4609 35.8717 77.4609 33.7901V3.63074Z" fill="#1B1845"/>
<path d="M72.9519 12.8753C75.6066 12.8753 76.2824 14.2792 76.2824 15.9252C76.2824 17.1838 75.7997 18.7329 72.9519 18.7329H68.5595V33.6432C68.5595 36.2089 66.5323 37.3223 64.4085 37.3223C62.2847 37.3223 60.3057 36.2089 60.3057 33.6432V18.7329H55.4789C52.9207 18.7329 52.1484 17.329 52.1484 15.8283C52.1484 14.3276 52.7276 12.8753 55.4789 12.8753H60.3057V4.79089C60.3057 2.27358 62.2847 1.16016 64.4085 1.16016C66.5323 1.16016 68.5595 2.27358 68.5595 4.79089V12.8753H72.9519Z" fill="#1B1845"/>
<path d="M42.8203 7.30973C42.8203 4.64719 44.9441 3.14648 47.5988 3.14648C50.2536 3.14648 52.4256 4.64719 52.4256 7.30973C52.4256 9.97227 50.2536 11.4246 47.5988 11.4246C44.9441 11.4246 42.8203 9.97227 42.8203 7.30973ZM43.6409 33.6447V16.7012C43.6409 14.2323 45.6198 13.1189 47.6954 13.1189C49.7709 13.1189 51.7981 14.2323 51.7981 16.7012V33.6447C51.7981 36.2104 49.7709 37.3238 47.6954 37.3238C45.6198 37.3238 43.6409 36.2104 43.6409 33.6447Z" fill="#1B1845"/>
<path d="M0.209889 17.283C-0.417593 15.7339 0.354693 13.7491 2.62328 13.023C4.89187 12.2968 6.77432 13.023 7.54661 15.1046L12.1803 28.1268L16.814 14.9109C17.2967 13.507 18.7448 12.6841 20.6755 12.7325C22.8475 12.7809 24.0059 13.7491 24.4886 15.1046L29.1706 28.1752L33.6595 15.1046C34.1422 13.7007 35.4454 12.2968 38.438 12.9261C40.3205 13.3134 41.9133 15.0562 41.141 16.9926L34.4318 34.3717C33.9491 35.6788 32.115 37.5667 29.1223 37.5667C25.7436 37.5667 24.2956 35.6303 23.8611 34.3717L20.5789 25.077L17.4898 34.3717C17.1036 35.6303 15.4625 37.5667 12.1803 37.5667C8.94637 37.5667 7.45007 35.5819 6.96739 34.3717L0.209889 17.283Z" fill="#1B1845"/>
<path d="M159.251 63.4608H154.511C153.051 63.4608 152.891 62.8608 152.891 62.0608V48.5408C152.891 47.7208 153.051 47.0008 154.511 47.0008H158.851C160.311 47.0008 160.671 47.5808 160.671 48.4008C160.671 49.1008 160.311 49.7608 158.851 49.7608H156.131V53.8608H158.751C160.211 53.8608 160.571 54.4408 160.571 55.2608C160.571 55.9608 160.211 56.6208 158.751 56.6208H156.131V60.7008H159.251C160.711 60.7008 161.071 61.3608 161.071 62.0608C161.071 62.8808 160.711 63.4608 159.251 63.4608ZM166.951 63.9608C166.051 63.9608 165.331 63.5408 165.331 62.2008V56.5808H163.411C161.951 56.5808 161.671 56.0008 161.671 55.1808C161.671 54.4608 161.971 53.8208 163.411 53.8208H165.331V48.5408C165.331 47.2008 166.091 46.8008 166.951 46.8008C167.791 46.8008 168.571 47.1608 168.571 48.5408V62.2008C168.571 63.5808 167.811 63.9608 166.951 63.9608Z" fill="#1B1845"/>
<path d="M147.93 64.1808H135.79C134.33 64.1808 134.17 63.5808 134.17 62.7808V59.4408C134.17 58.1008 134.93 57.7008 135.79 57.7008C136.63 57.7008 137.41 58.0608 137.41 59.4408V61.4208H147.93C149.39 61.4208 149.75 62.0808 149.75 62.7808C149.75 63.6008 149.39 64.1808 147.93 64.1808ZM134.17 56.6208C133.71 56.6408 133.19 56.5008 132.87 55.9608C132.33 55.1008 132.61 54.5208 133.47 53.9008C135.41 52.5408 135.59 51.5408 135.59 49.6808V48.6408C135.59 47.2608 136.41 46.9008 137.25 46.9008C138.09 46.9008 138.91 47.2608 138.91 48.6408V49.6208C138.91 51.5408 138.97 52.3008 140.77 53.7608C141.57 54.4208 141.91 54.9608 141.37 55.8208C141.07 56.2808 140.65 56.5008 140.17 56.5208C139.87 56.5208 139.55 56.4808 139.25 56.2608C138.51 55.7208 137.89 55.0808 137.35 54.3808C136.81 55.1608 136.15 55.7808 135.37 56.2408C135.03 56.4608 134.59 56.6008 134.17 56.6208ZM144.17 58.5408C143.31 58.5408 142.75 58.1608 142.75 56.7808V52.5608H141.81C140.37 52.5608 140.07 51.9608 140.07 51.1408C140.07 50.5008 140.29 49.7608 141.81 49.7608H142.75V48.5408C142.75 47.2008 143.29 46.8008 144.15 46.8008C144.97 46.8008 145.55 47.2008 145.55 48.5408V56.7808C145.55 58.1608 145.03 58.5408 144.17 58.5408ZM148.19 58.5608C147.33 58.5608 146.77 58.1808 146.77 56.8008V48.5408C146.77 47.2008 147.31 46.8008 148.17 46.8008C148.99 46.8008 149.57 47.2008 149.57 48.5408V56.8008C149.57 58.1808 149.05 58.5608 148.19 58.5608Z" fill="#1B1845"/>
<path d="M126.783 64.2011H118.343C115.843 64.1411 114.923 62.7011 114.923 60.8211C114.923 58.8811 115.723 57.5011 118.383 57.4411H126.743C129.443 57.4411 130.203 58.9211 130.203 60.8211C130.203 62.6811 129.323 64.1411 126.783 64.2011ZM119.243 61.5411H125.883C126.663 61.5411 126.983 61.4411 126.983 60.8211C126.983 60.1811 126.663 60.0811 125.883 60.0811H119.243C118.463 60.0811 118.143 60.1811 118.143 60.8211C118.143 61.4411 118.463 61.5411 119.243 61.5411ZM115.383 56.7211C114.923 56.7011 114.443 56.6011 114.143 56.0611C113.663 55.1811 113.983 54.4611 114.923 54.0011C115.923 53.5011 116.683 53.1611 117.123 52.3611C117.243 52.1611 117.323 51.9011 117.383 51.6011H115.823C114.523 51.6011 114.203 51.1811 114.203 50.5211C114.203 49.7411 114.523 49.4011 115.823 49.4011H122.163C123.463 49.4011 123.783 49.7411 123.783 50.5211C123.783 51.1811 123.463 51.6011 122.163 51.6011H120.923C120.983 51.9011 121.083 52.1611 121.223 52.3611C121.743 53.1611 122.363 53.4811 123.103 53.8411C124.043 54.3211 124.403 54.9211 124.023 55.8211C123.803 56.3011 123.443 56.5011 122.963 56.5811C122.663 56.6011 122.323 56.5611 122.023 56.4011C121.243 56.0011 120.223 55.2011 119.323 54.2411C118.583 55.1211 117.643 55.8811 116.603 56.4211C116.223 56.6011 115.803 56.7211 115.383 56.7211ZM121.223 48.6011H116.943C115.743 48.6011 115.423 48.1411 115.423 47.6211C115.423 47.0611 115.683 46.6211 116.943 46.6211H121.223C122.483 46.6211 122.743 47.0611 122.743 47.6211C122.743 48.1411 122.423 48.6011 121.223 48.6011ZM128.343 56.8611C127.443 56.8611 126.723 56.4411 126.723 55.1011V48.5411C126.723 47.2011 127.483 46.8011 128.343 46.8011C129.183 46.8011 129.963 47.1611 129.963 48.5411V55.1011C129.963 56.4811 129.203 56.8611 128.343 56.8611Z" fill="#1B1845"/>
<path d="M107.896 58.0802C107.256 57.7802 106.896 57.1402 107.156 56.3402C107.276 56.0002 107.376 55.6602 107.436 55.3402C107.496 55.1002 107.536 54.8602 107.556 54.6402H98.0156C96.5556 54.6402 96.1956 54.0602 96.1956 53.2402C96.1956 52.5402 96.5556 51.8802 98.0156 51.8802H107.696V50.0002H98.1756C96.7156 50.0002 96.3556 49.4202 96.3556 48.6002C96.3556 47.9002 96.7156 47.2402 98.1756 47.2402H109.476C110.916 47.2402 111.016 47.8202 111.016 48.7602V51.5602C111.016 53.9402 110.936 56.3402 109.936 57.6602C109.396 58.4202 108.476 58.3402 107.896 58.0802ZM110.736 63.7202H96.8356C95.3756 63.7202 95.0156 63.0602 95.0156 62.3602C95.0156 61.5402 95.3756 60.9602 96.8356 60.9602H100.216V58.1602C100.216 56.8202 100.976 56.4202 101.836 56.4202C102.676 56.4202 103.456 56.7802 103.456 58.1602V60.9602H110.736C112.196 60.9602 112.556 61.5402 112.556 62.3602C112.556 63.0602 112.196 63.7202 110.736 63.7202Z" fill="#1B1845"/>
<path d="M89.6741 64.1808H78.0341C76.5741 64.1808 76.4141 63.5808 76.4141 62.7808V58.8208C76.4141 57.8008 76.8541 57.0808 78.2341 57.0808H89.8741C91.3341 57.0808 91.4941 57.6808 91.4941 58.4808V62.4408C91.4941 63.7808 90.7141 64.1808 89.6741 64.1808ZM79.6541 61.4808H88.2541V59.7808H79.6541V61.4808ZM83.5741 55.7008H78.0341C76.5741 55.7008 76.4141 55.1008 76.4141 54.3008V48.6408C76.4141 47.6208 76.5341 47.0008 78.0341 47.0008H83.1741C84.6341 47.0008 84.9941 47.5808 84.9941 48.4008C84.9941 49.0408 84.7141 49.7208 83.1741 49.7208H79.6541V52.9808H83.5741C85.1141 52.9808 85.3941 53.6608 85.3941 54.3008C85.3941 55.1208 85.0341 55.7008 83.5741 55.7008ZM89.4741 56.1208C88.5741 56.1208 87.8541 55.7008 87.8541 54.3608V48.5408C87.8541 47.2008 88.6141 46.8008 89.4741 46.8008C90.3141 46.8008 91.0941 47.1608 91.0941 48.5408V49.9608H92.5541C94.0741 49.9608 94.3741 50.7208 94.3741 51.3608C94.3741 52.1608 94.0741 52.8008 92.5541 52.8008H91.0941V54.3608C91.0941 55.7408 90.3341 56.1208 89.4741 56.1208Z" fill="#1B1845"/>
<path d="M69.4091 64.2008H60.7691C58.2691 64.1408 57.3491 62.4008 57.3491 60.5208C57.3491 58.6008 58.1291 56.9008 60.8091 56.8408H69.3691C72.0691 56.8408 72.8291 58.6208 72.8291 60.5208C72.8291 62.3808 71.9491 64.1408 69.4091 64.2008ZM61.6691 61.4808H68.5091C69.2891 61.4208 69.6091 61.2408 69.6091 60.5208C69.6091 59.7808 69.2891 59.6008 68.5091 59.5408H61.6691C60.8891 59.6008 60.5691 59.7808 60.5691 60.5208C60.5691 61.2408 60.8891 61.4208 61.6691 61.4808ZM58.3491 55.8608C57.8891 55.8808 57.3691 55.7408 57.0491 55.2008C56.5091 54.3408 56.8491 53.6608 57.7091 53.0408C59.7091 51.6208 60.3091 50.9608 60.3691 48.9608V48.6408C60.3691 47.2608 61.1891 46.9008 62.0291 46.9008C62.8691 46.9008 63.6891 47.2608 63.6891 48.6408V48.9608C63.7491 50.9608 64.2891 51.4408 66.3291 52.9008C67.1891 53.5208 67.5291 54.2008 66.9891 55.0608C66.6891 55.5208 66.2691 55.7408 65.7891 55.7608C65.4891 55.7608 65.1691 55.7208 64.8691 55.5008C63.9291 54.8008 62.9691 53.9408 62.1891 52.9608C61.4691 53.9808 60.5691 54.9008 59.5491 55.4808C59.2091 55.7008 58.7691 55.8408 58.3491 55.8608ZM70.4691 56.1608C69.5691 56.1608 68.8491 55.7408 68.8491 54.4008V48.5408C68.8491 47.2008 69.6091 46.8008 70.4691 46.8008C71.3091 46.8008 72.0891 47.1608 72.0891 48.5408V49.9608H73.5491C75.0691 49.9608 75.3691 50.7208 75.3691 51.3608C75.3691 52.1608 75.0691 52.8008 73.5491 52.8008H72.0891V54.4008C72.0891 55.7808 71.3291 56.1608 70.4691 56.1608Z" fill="#1B1845"/>
<path d="M52.7478 64.1808H40.5078C39.0478 64.1808 38.8878 63.5808 38.8878 62.7808V60.5808C38.8878 59.2608 39.6078 58.9008 40.5078 58.9008C41.3478 58.9008 42.1278 59.2008 42.1278 60.5808V61.5008H52.7478C54.2878 61.5008 54.5678 62.1808 54.5678 62.8208C54.5678 63.6208 54.2678 64.1808 52.7478 64.1808ZM43.9078 60.1008C43.0278 60.1008 42.2878 59.8008 42.2878 58.4808V57.7608H39.8278C38.2878 57.7608 38.0078 57.1408 38.0078 56.5008C38.0078 55.7008 38.3078 55.2008 39.8278 55.2008H47.6678C49.1878 55.2008 49.4878 55.7008 49.4878 56.5008C49.4878 57.1408 49.2078 57.7608 47.6678 57.7608H45.5278V58.4808C45.5278 59.8608 44.7478 60.1008 43.9078 60.1008ZM43.2678 54.5208C40.1678 54.5208 38.5478 53.7408 38.5478 50.7408C38.5478 47.7408 40.1678 46.9408 43.2678 46.9408C46.3678 46.9408 47.9878 47.7408 47.9878 50.7408C47.9878 53.9608 46.3678 54.5208 43.2678 54.5208ZM43.2678 52.1408C44.3278 52.1408 44.7278 51.8608 44.7278 50.7408C44.7278 49.6208 44.3278 49.3408 43.2678 49.3408C42.2078 49.3408 41.8078 49.6208 41.8078 50.7408C41.8078 51.8608 42.2078 52.1408 43.2678 52.1408ZM52.7278 59.8008C51.8278 59.8008 51.1078 59.3808 51.1078 58.0408V53.9008H50.0878C48.5678 53.9008 48.2678 53.2008 48.2678 52.5608C48.2678 51.7608 48.5678 51.1808 50.0878 51.1808H51.1078V48.5408C51.1078 47.2008 51.8678 46.8008 52.7278 46.8008C53.5678 46.8008 54.3478 47.1608 54.3478 48.5408V58.0408C54.3478 59.4208 53.5878 59.8008 52.7278 59.8008Z" fill="#1B1845"/>
<path d="M33.4 56.92H22.26C20.78 56.92 20.64 56.26 20.64 55.42V48.74C20.64 47.4 21.4 47 22.26 47H33.2C34.54 47 34.72 47.7 34.72 48.4C34.72 48.98 34.54 49.78 33.2 49.78H23.88V54.14H33.4C34.7 54.14 34.92 54.92 34.92 55.52C34.92 56.22 34.74 56.92 33.4 56.92ZM34.72 63.72H20.82C19.36 63.72 19 63.06 19 62.36C19 61.54 19.36 60.96 20.82 60.96H34.72C36.18 60.96 36.54 61.54 36.54 62.36C36.54 63.06 36.18 63.72 34.72 63.72Z" fill="#1B1845"/>
<path d="M5.54 56.2808C2.44 56.2808 0.86 54.9008 0.7 52.2608C0.64 51.5808 0.64 51.6408 0.7 50.9608C0.84 48.3008 2.4 46.8608 5.54 46.8608C8.52 46.8608 10.2 48.3008 10.38 50.9608C10.4 51.1408 10.4 51.2608 10.4 51.3608V51.8608C10.4 51.9408 10.4 52.0808 10.38 52.2608C10.32 54.9608 8.58 56.2808 5.54 56.2808ZM5.96 63.9608C5.06 63.9608 4.34 63.5408 4.34 62.2008V60.2008H1.82C0.36 60.2008 0 59.5408 0 58.8408C0 58.0208 0.36 57.4408 1.82 57.4408H9.98C11.44 57.4408 11.8 58.0208 11.8 58.8408C11.8 59.5408 11.44 60.2008 9.98 60.2008H7.58V62.2008C7.58 63.5808 6.82 63.9608 5.96 63.9608ZM5.54 53.5608C6.06 53.5608 7.08 53.4208 7.14 52.2608C7.16 52.0608 7.16 51.9208 7.16 51.8208V51.3008C7.16 51.2008 7.16 51.0608 7.14 50.8808C7.14 49.7408 5.98 49.6008 5.54 49.6008C5.02 49.6008 4 49.8608 3.94 50.9408C3.88 51.7208 3.88 51.6008 3.94 52.2608C3.94 53.4208 4.98 53.5608 5.54 53.5608ZM14.92 63.9608C14.02 63.9608 13.3 63.5408 13.3 62.2008V48.5408C13.3 47.2008 14.06 46.8008 14.92 46.8008C15.76 46.8008 16.54 47.1608 16.54 48.5408V62.2008C16.54 63.5808 15.78 63.9608 14.92 63.9608Z" fill="#1B1845"/>
</svg>
